<svg xmlns="http://www.w3.org/2000/svg" xmlns:xlink="http://www.w3.org/1999/xlink" width="10.852" height="11.025" viewBox="0 0 10.852 11.025"><defs><style>.a{fill:url(#a);}</style><linearGradient id="a" x1="0.5" x2="0.5" y2="1" gradientUnits="objectBoundingBox"><stop offset="0" stop-color="#fabc6c"/><stop offset="1" stop-color="#fc0975"/></linearGradient></defs><g transform="translate(-0.977)"><g transform="translate(0.977)"><path class="a" d="M39.437,53.488l-.169,1a.366.366,0,0,0,.531.386l.9-.471.9.472a.366.366,0,0,0,.531-.386l-.169-1,.727-.713a.366.366,0,0,0-.2-.624L41.484,52l-.454-.912a.367.367,0,0,0-.657,0L39.92,52l-1.008.149a.367.367,0,0,0-.2.624Z" transform="translate(-35.277 -46.39)"/><path class="a" d="M10.734,1.172H9.58V.532A.532.532,0,0,0,9.048,0H8.964a.532.532,0,0,0-.532.532v.64H4.36V.532A.532.532,0,0,0,3.829,0H3.744a.532.532,0,0,0-.532.532v.64H2.072A1.1,1.1,0,0,0,.977,2.267V9.93a1.1,1.1,0,0,0,1.095,1.095h8.663A1.1,1.1,0,0,0,11.829,9.93V2.267A1.1,1.1,0,0,0,10.734,1.172Zm-.143,8.615H2.215V3.822h8.377Z" transform="translate(-0.977)"/></g></g></svg>