<svg xmlns="http://www.w3.org/2000/svg" width="40.274" height="37.224" viewBox="0 0 40.274 37.224"><defs><style>.a{fill:#fd3b70;}</style></defs><g transform="translate(0 -19.387)"><g transform="translate(0 26.405)"><g transform="translate(0 0)"><path class="a" d="M31.212,118.675H23.883L22.1,113.322a.954.954,0,0,0-.977-.688,1,1,0,0,0-.946.73l-2.938,10.281-3.166-14.249a1.007,1.007,0,0,0-1.918-.156l-3.776,9.436H1.007a1.007,1.007,0,0,0,0,2.014H9.062a1,1,0,0,0,.934-.633l2.818-7.042,3.319,14.942a1.008,1.008,0,0,0,.954.789h.029a1.006,1.006,0,0,0,.967-.73l3.135-10.967L22.2,120a1.009,1.009,0,0,0,.956.688h8.055a1.007,1.007,0,0,0,0-2.014Z" transform="translate(0 -108.608)"/></g></g><g transform="translate(0.04 19.387)"><g transform="translate(0 0)"><path class="a" d="M37.2,22.926a11.995,11.995,0,0,0-16.6-.4A12.016,12.016,0,0,0,.888,34.46H2.982A10,10,0,0,1,19.13,23.91L20.6,25.285l1.472-1.376a9.985,9.985,0,0,1,13.7.44,10.08,10.08,0,0,1,0,14.239L20.6,53.763,7.34,40.5H4.492L20.6,56.611l16.6-16.6A12.083,12.083,0,0,0,37.2,22.926Z" transform="translate(-0.504 -19.387)"/></g></g></g></svg>