<svg xmlns="http://www.w3.org/2000/svg" width="34.175" height="23.937" viewBox="0 0 34.175 23.937"><defs><style>.a{fill:#ea0066;}</style></defs><g transform="translate(-144.341 -105.456)"><g transform="translate(144.341 105.456)"><path class="a" d="M178.5,121.336a4.567,4.567,0,0,0-.905-2.29,5.085,5.085,0,0,0-1.049-1.036,6.247,6.247,0,0,0-3.894-1.162h-.011l-.32.018a6.673,6.673,0,0,0-2.282.6l-.009,0c-.245.122-.323.165-.353.182a16.218,16.218,0,0,1-4.965,1.87,16.233,16.233,0,0,1,3.179-4.247c.025-.024.087-.087.273-.289l.006-.008a6.683,6.683,0,0,0,1.211-2.032l.1-.3a.042.042,0,0,0,0-.01,6,6,0,0,0-.74-5.379h0a4.515,4.515,0,0,0-1.305-1.174,4.567,4.567,0,0,0-2.958-.583,5.5,5.5,0,0,0-2.685,1.2,6.415,6.415,0,0,0-1.226,1.326,7.317,7.317,0,0,0-.818,1.6,6.024,6.024,0,0,0,.665,5.537,4.721,4.721,0,0,0,.629.685,4.357,4.357,0,0,0,.4.321l-1.589,3.686-12.077,2.13-.131.019a3.838,3.838,0,0,0-.841.189,3.771,3.771,0,0,0-1.984,2.086,4.785,4.785,0,0,0-.319.938l-.16.73a.371.371,0,0,0,.408.448l13.154-1.651-1.931,4.651h4.672l2.524-5.328,3.844-.482a4.511,4.511,0,0,0,.666,1.255,5.989,5.989,0,0,0,4.857,2.209,6.24,6.24,0,0,0,5.312-2.914A4.669,4.669,0,0,0,178.5,121.336Zm-15.288-7.592a1.675,1.675,0,0,1-.4-.382,2.892,2.892,0,0,1-.383-2.208,3.688,3.688,0,0,1,1.371-2.229,1.975,1.975,0,0,1,1.937-.358h0a1.549,1.549,0,0,1,.625.5,2.83,2.83,0,0,1,.423,2.008,3.68,3.68,0,0,1-1.445,2.472A1.91,1.91,0,0,1,163.208,113.745Zm12.308,8.19a1.874,1.874,0,0,1-.437.982,3.421,3.421,0,0,1-2.486,1.135,3,3,0,0,1-2.5-1c-.021-.028-.041-.057-.061-.086a1.645,1.645,0,0,1,.151-1.957,3.307,3.307,0,0,1,2.15-1.137l.1-.013a3.17,3.17,0,0,1,2.672.863c.032.036.062.074.091.112A1.557,1.557,0,0,1,175.516,121.935Z" transform="translate(-144.341 -105.456)"/></g></g></svg>