<svg xmlns="http://www.w3.org/2000/svg" xmlns:xlink="http://www.w3.org/1999/xlink" width="14.864" height="7.838" viewBox="0 0 14.864 7.838"><defs><style>.a{fill:url(#a);}</style><linearGradient id="a" x1="0.5" x2="0.5" y2="1" gradientUnits="objectBoundingBox"><stop offset="0" stop-color="#fabc6c"/><stop offset="1" stop-color="#fc0975"/></linearGradient></defs><g transform="translate(0 -121)"><g transform="translate(-0.001 121)"><g transform="translate(0 0)"><path class="a" d="M14.753,124.629C14.62,124.481,11.429,121,7.432,121S.243,124.481.111,124.629a.436.436,0,0,0,0,.581c.133.148,3.324,3.629,7.321,3.629s7.188-3.481,7.321-3.629A.436.436,0,0,0,14.753,124.629Zm-7.321,3.339a3.048,3.048,0,1,1,3.048-3.048A3.052,3.052,0,0,1,7.432,127.968Z" transform="translate(0.001 -121)"/></g></g><g transform="translate(5.254 122.742)"><g transform="translate(0 0)"><path class="a" d="M183.613,182.306a1.3,1.3,0,0,1,.548-1.061,2.149,2.149,0,0,0-.984-.246,2.177,2.177,0,1,0,2.14,2.544A1.3,1.3,0,0,1,183.613,182.306Z" transform="translate(-181 -181)"/></g></g></g></svg>