<svg xmlns="http://www.w3.org/2000/svg" width="32.799" height="24.599" viewBox="0 0 32.799 24.599"><defs><style>.a{fill:#eceff1;}.b{fill:#cfd8dc;}.c{fill:#f44336;}</style></defs><g transform="translate(0 -64)"><rect class="a" width="23" height="24" transform="translate(4.799 64.349)"/><path class="b" d="M256,158.134l12.3,9.712V148.672Z" transform="translate(-239.601 -79.248)"/><path class="c" d="M29.724,64H28.7L16.4,73.712,4.1,64H3.075A3.076,3.076,0,0,0,0,67.075V85.524A3.076,3.076,0,0,0,3.075,88.6H4.1V69.424l12.3,9.46,12.3-9.462V88.6h1.025A3.076,3.076,0,0,0,32.8,85.524V67.075A3.076,3.076,0,0,0,29.724,64Z"/></g></svg>