<svg xmlns="http://www.w3.org/2000/svg" xmlns:xlink="http://www.w3.org/1999/xlink" width="414" height="79" viewBox="0 0 414 79"><defs><style>.a{fill:url(#a);}.b{fill:#feac4f;}.c{fill:#fd1571;}.d{fill:#fff;font-size:16px;font-family:Raleway-Bold, Raleway;font-weight:700;}.e{filter:url(#d);}.f{filter:url(#b);}</style><linearGradient id="a" x1="1" y1="0.357" x2="0" y2="0.643" gradientUnits="objectBoundingBox"><stop offset="0" stop-color="#fe0072"/><stop offset="1" stop-color="#fabd6c"/></linearGradient><filter id="b" x="212" y="7" width="197" height="71" filterUnits="userSpaceOnUse"><feOffset dy="3" input="SourceAlpha"/><feGaussianBlur stdDeviation="3" result="c"/><feFlood flood-opacity="0.251"/><feComposite operator="in" in2="c"/><feComposite in="SourceGraphic"/></filter><filter id="d" x="186" y="7" width="71" height="71" filterUnits="userSpaceOnUse"><feOffset dy="3" input="SourceAlpha"/><feGaussianBlur stdDeviation="3" result="e"/><feFlood flood-opacity="0.251"/><feComposite operator="in" in2="e"/><feComposite in="SourceGraphic"/></filter></defs><g transform="translate(0 -4990)"><rect class="a" width="414" height="79" transform="translate(0 4990)"/><g transform="translate(0 435)"><g class="f" transform="matrix(1, 0, 0, 1, 0, 4555)"><rect class="b" width="179" height="53" transform="translate(221 13)"/></g><g class="e" transform="matrix(1, 0, 0, 1, 0, 4555)"><path class="b" d="M26.5,0A26.5,26.5,0,1,1,0,26.5,26.5,26.5,0,0,1,26.5,0Z" transform="translate(195 13)"/></g></g><circle class="c" cx="24.5" cy="24.5" r="24.5" transform="translate(198 5005)"/><g transform="translate(207 5000.875)"><g transform="translate(0 16)"><path class="b" d="M22.75,16A76.8,76.8,0,0,0,10.941,32.775,45.221,45.221,0,0,0,5.25,26.5H0C4.1,31.3,6.3,34.972,10.5,42.25H14C17.36,33.089,20.423,26.636,28,16Z" transform="translate(0 -16)"/></g></g><text class="d" transform="translate(241.304 5017.191)"><tspan x="18.1" y="15">Rush My Order</tspan></text></g></svg>