<svg xmlns="http://www.w3.org/2000/svg" width="37.022" height="20.543" viewBox="0 0 37.022 20.543"><defs><style>.a{fill:#fff;}</style></defs><g transform="translate(-694.98 -1586.553)"><path class="a" d="M126.76,406.665a2.273,2.273,0,1,0-2.272,2.282A2.277,2.277,0,0,0,126.76,406.665Zm0,0" transform="translate(581.603 1198.149)"/><path class="a" d="M399.427,406.665a2.273,2.273,0,1,0-2.273,2.282A2.277,2.277,0,0,0,399.427,406.665Zm0,0" transform="translate(328.651 1198.149)"/><path class="a" d="M102.153,191.135l-2.8-1.146-2.362-5.276a2.224,2.224,0,0,0-2.026-1.315H74.077a1.085,1.085,0,0,0-1.085,1.085v2.088h1.085a1.085,1.085,0,1,1,0,2.169H72.993v2.17h3.76a1.085,1.085,0,0,1,0,2.169h-3.76v2.169h1.085a1.085,1.085,0,0,1,0,2.169H72.993v2.209a1.085,1.085,0,0,0,1.085,1.085h.408a4.439,4.439,0,0,1,8.679,0H94.2a4.439,4.439,0,0,1,8.679,0h.772a1.085,1.085,0,0,0,1.085-1.085v-4.636a4.149,4.149,0,0,0-2.584-3.856Zm-10.405.032a1.085,1.085,0,0,1-1.085-1.085V185.31h4.3c.019,0,2.586,5.7,2.586,5.7a1.062,1.062,0,0,0,.085.153Zm0,0" transform="translate(627.266 1403.154)"/><path class="a" d="M33.077,347.277a1.085,1.085,0,1,0,0,2.169h1.88v-2.169Zm0,0" transform="translate(665.301 1251.126)"/><path class="a" d="M33.077,287.277a1.085,1.085,0,1,0,0,2.169h1.88v-2.169Zm0,0" transform="translate(665.301 1306.787)"/><path class="a" d="M1.085,227.273a1.085,1.085,0,1,0,0,2.169H5.278v-2.169Zm0,0" transform="translate(694.98 1362.452)"/></g></svg>