<svg xmlns="http://www.w3.org/2000/svg" xmlns:xlink="http://www.w3.org/1999/xlink" width="82" height="82" viewBox="0 0 82 82"><defs><style>.a{fill:#fff;stroke:#707070;}.b{clip-path:url(#a);}.c{fill:#d4dce6;}.d{clip-path:url(#b);}.e{fill:#421800;}.f{fill:#f0d0b4;}.g{fill:#b34fc5;}.h{fill:#e7ecf2;}</style><clipPath id="a"><circle class="a" cx="41" cy="41" r="41" transform="translate(922 454)"/></clipPath><clipPath id="b"><circle cx="41" cy="41" r="41" transform="translate(0 0)"/></clipPath></defs><g class="b" transform="translate(-922 -454)"><g transform="translate(922 454)"><circle class="c" cx="41" cy="41" r="41" transform="translate(0 0)"/><g class="d"><path class="e" d="M65.183,42.607V80.7L16.91,79.882v-38.1Z"/><path class="f" d="M59.245,25.4V36.632c0,.2,0,.394-.009.591,0,.161-.009.318-.018.479q-.007.215-.027.43c0,.1-.013.206-.022.309,0,.063-.009.121-.018.183-.009.112-.018.228-.036.34-.018.215-.045.426-.076.641,0,.054-.013.108-.022.161-.014.108-.031.215-.049.323V40.1c-.027.156-.054.309-.081.466-.04.215-.081.43-.125.641,0,.009,0,.018-.009.027a.716.716,0,0,1-.018.094c0,.009,0,.018-.009.027-.022.117-.049.228-.076.34a.858.858,0,0,1-.036.148c-.013.081-.036.161-.054.242-.014.045-.023.094-.041.139s-.022.081-.031.117c-.094.367-.2.726-.314,1.084-.054.17-.107.336-.166.506,0,.018-.014.036-.018.054l-.161.457c-.018.045-.036.09-.054.139-.054.143-.107.287-.166.43-.067.175-.139.345-.211.516-.063.153-.13.3-.2.457-.009.027-.023.049-.031.076-.076.161-.148.323-.224.479s-.157.332-.242.5c-.161.327-.336.654-.511.972l-.242.43a26.419,26.419,0,0,1-2.29,3.334c-.112.148-.228.292-.35.43-.166.2-.336.4-.506.591-.143.161-.292.327-.444.484a.074.074,0,0,1-.018.022Q51.7,54,51.027,54.618c-.09.09-.184.17-.278.255-.153.139-.3.274-.462.4-.121.108-.246.211-.372.314-.323.264-.645.52-.972.757-.135.1-.274.2-.412.3-.224.161-.452.314-.681.462-.126.085-.255.166-.386.242-.457.282-.918.542-1.375.766-.112.058-.224.112-.336.166s-.228.107-.35.161q-.222.1-.444.188a1.415,1.415,0,0,1-.174.067c-.175.071-.354.139-.529.2-.22.081-.444.148-.663.211-.153.045-.309.085-.462.121a.063.063,0,0,1-.031.009c-.153.036-.3.072-.457.1a1.083,1.083,0,0,1-.121.022c-.126.023-.251.045-.377.058a5.355,5.355,0,0,1-.537.058,1.3,1.3,0,0,1-.184.014c-.143.009-.282.013-.421.013h-.018q-.209,0-.417-.013a1,1,0,0,1-.161-.014c-.126,0-.256-.018-.39-.036a.61.61,0,0,1-.085-.009c-.166-.023-.332-.049-.5-.081-.143-.022-.286-.054-.435-.089a12.882,12.882,0,0,1-2.352-.793,17.146,17.146,0,0,1-2.057-1.084c-.345-.211-.69-.435-1.031-.672-.17-.121-.34-.242-.511-.367q-.8-.585-1.582-1.273c-.143-.13-.286-.26-.43-.394s-.287-.265-.426-.394c-.332-.318-.654-.645-.964-.99a.668.668,0,0,1-.058-.058q-.195-.209-.39-.43c-.358-.4-.708-.82-1.039-1.255-.13-.157-.251-.318-.372-.48q-.679-.9-1.286-1.878c-.107-.175-.215-.354-.318-.529-.126-.211-.246-.426-.367-.641A24.433,24.433,0,0,1,24.6,45.509c-.054-.126-.108-.251-.153-.377-.072-.161-.135-.327-.193-.488q-.134-.357-.255-.713c-.081-.238-.156-.479-.233-.721s-.139-.466-.2-.7-.139-.506-.2-.766c0-.027-.014-.054-.018-.081q-.127-.537-.228-1.089c-.09-.484-.161-.977-.215-1.474-.022-.157-.036-.314-.049-.471s-.031-.327-.04-.493c-.023-.3-.036-.6-.045-.91,0-.2-.009-.394-.009-.591V25.4A18.244,18.244,0,0,1,40,7.184a.173.173,0,0,1,.049,0l.377-.014c.188,0,.372-.009.56-.009H41c.192,0,.385,0,.578.009.148,0,.3.009.444.018h.014a18.356,18.356,0,0,1,3.006.421,18.249,18.249,0,0,1,14.2,17.632C59.245,25.291,59.245,25.345,59.245,25.4Z"/><path class="f" d="M64.77,87.49v0H17.233v0a23.63,23.63,0,0,1,1.246-7.608c.009-.023.014-.045.023-.067q.222-.652.484-1.29v0c.17-.426.358-.842.555-1.255a23.527,23.527,0,0,1,2.895-4.615c.287-.354.578-.7.879-1.03.148-.17.3-.336.462-.5s.314-.323.475-.484a23.605,23.605,0,0,1,2.568-2.214c.452-.336.91-.65,1.385-.954.063-.04.126-.081.188-.116.175-.112.35-.22.529-.323.242-.143.488-.282.735-.417a.028.028,0,0,1,.018-.009c.193-.1.381-.215.569-.332a14.094,14.094,0,0,0,1.609-1.12,14.991,14.991,0,0,0,5.673-11.762l3.464.018h.058l3.5.018a15.1,15.1,0,0,0,.224,2.6,14.832,14.832,0,0,0,.632,2.415,15.007,15.007,0,0,0,4.777,6.712,12.259,12.259,0,0,0,.995.735c.036.027.067.049.1.072.161.108.323.215.493.314s.372.224.56.327a.227.227,0,0,1,.081.041c.394.22.784.448,1.165.686a1,1,0,0,1,.089.058c.153.094.309.192.457.3.372.238.735.5,1.089.767,0,0,0,0,0,0h0c.453.336.892.695,1.322,1.062s.842.753,1.241,1.152A23.664,23.664,0,0,1,64.77,87.49Z"/><path class="g" d="M64.77,87.49H17.233a23.63,23.63,0,0,1,1.246-7.608c.009-.023.014-.045.023-.067q.222-.652.484-1.29v0c.17-.426.358-.842.555-1.255a23.527,23.527,0,0,1,2.895-4.615c.287-.354.578-.7.879-1.03.148-.17.3-.336.462-.5s.314-.323.475-.484a23.605,23.605,0,0,1,2.568-2.214c.452-.336.91-.65,1.385-.954.063-.04.126-.081.188-.116.175-.112.35-.22.529-.323.242-.148.488-.287.735-.421a.016.016,0,0,1,.018,0v0c.193-.108.381-.215.569-.327a13.848,13.848,0,0,0,1.6-1.129l.009.009a12.772,12.772,0,0,0,9.137,3.858h.058a12.792,12.792,0,0,0,9.137-3.854l0,0a12.062,12.062,0,0,0,.99.739c.036.027.067.049.1.072.161.108.327.211.493.314.183.112.372.22.56.323a.48.48,0,0,1,.081.041c.394.219.784.448,1.165.69a1,1,0,0,1,.089.058c.153.094.309.192.457.3.372.238.735.5,1.089.767h.009c.453.34.9.694,1.322,1.066s.842.753,1.241,1.152A23.657,23.657,0,0,1,64.77,87.49Z"/><path class="e" d="M65.286,74.345a.369.369,0,0,1-.1.031c-2.357.614-11.65-10.585-11.744-22.325A21.785,21.785,0,0,1,53.6,49.2c.314-2.532,1.533-4.965,2.545-7.416a15.711,15.711,0,0,0,1.474-5.892c0-10.754-3.118-7.25-11.816-13.053-2.1-1.4-3.594-2.545-4.764-3.477-3.23-2.563-4.051-3.481-8.482-3.481-5.637,0-7.878,9.79-8.518,13.976a37.2,37.2,0,0,0,2.111,18.752c2.177,5.385,2.177,10.665-2.111,16.53-1.609,2.2-4.073,9.634-7.134,12.031a2.656,2.656,0,0,1-3.024.466c-8.362-4.279-3.33-18.013-.82-26.612,2.7-9.253,3.518-18.632,5.48-27.974C20.759,12.53,29.766,6.117,33.4,8.717c1.214-2.178,4.391-2.993,7.64-2.993a19.065,19.065,0,0,1,6.524,1.111c13.286,5.158,13.51,17.471,14.218,22.592.583,4.23,2.666,8.182,3.4,12.358V41.8a15.712,15.712,0,0,1,.256,2.679c.031,4.889-.516,8.2,3.2,12.269C71.456,59.834,69.3,72.584,65.286,74.345Z"/><path class="h" d="M41.044,69.007l-.013.023,0,.009a6.483,6.483,0,0,1-10.2.919L28.39,67.349c.412-.265.833-.511,1.263-.744a.016.016,0,0,1,.018,0v0c.193-.108.381-.215.569-.327a13.848,13.848,0,0,0,1.6-1.129l.009.009a12.772,12.772,0,0,0,9.137,3.858h.058Z"/><path class="h" d="M53.667,67.385l-2.4,2.572a6.484,6.484,0,0,1-10.2-.919l0-.009-.018-.023a12.792,12.792,0,0,0,9.137-3.854l0,0a12.064,12.064,0,0,0,.99.739c.036.027.067.049.1.072.161.108.327.211.493.314.183.112.372.22.56.323a.48.48,0,0,1,.081.041c.394.219.784.448,1.165.69C53.608,67.344,53.635,67.362,53.667,67.385Z"/></g></g></g></svg>