<svg xmlns="http://www.w3.org/2000/svg" xmlns:xlink="http://www.w3.org/1999/xlink" width="82" height="82" viewBox="0 0 82 82"><defs><style>.a{fill:#fff;stroke:red;stroke-width:10px;opacity:0.1;}.b,.d,.f,.g,.h,.j{stroke:#707070;stroke-width:0.436px;}.c{clip-path:url(#a);}.d{fill:#f3e4b2;}.e{clip-path:url(#b);}.f{fill:#ecc19c;}.g{fill:#eb6d4a;}.h{fill:#543e36;}.i{clip-path:url(#g);}.j{fill:#c34628;}</style><clipPath id="a"><circle class="a" cx="41" cy="41" r="41" transform="translate(783 454)"/></clipPath><clipPath id="b"><circle class="b" cx="41" cy="41" r="41" transform="translate(0 0)"/></clipPath><clipPath id="g"><circle class="b" cx="41" cy="41" r="41" transform="translate(-36.545 -43.922)"/></clipPath></defs><g class="c" transform="translate(-783 -454)"><g transform="translate(783 454)"><circle class="d" cx="41" cy="41" r="41" transform="translate(0 0)"/><g class="e"><path class="f" d="M59.261,23V36.631c0,.2,0,.394-.009.591,0,.161-.009.318-.018.48q-.007.215-.027.43c0,.1-.014.206-.022.309,0,.063-.009.121-.018.184-.009.112-.018.228-.036.34-.018.215-.045.426-.076.641,0,.054-.014.108-.022.161-.014.108-.031.215-.049.323V40.1c-.027.156-.054.309-.081.466-.041.215-.081.43-.126.641,0,.009,0,.018-.009.027a.729.729,0,0,1-.018.094c0,.009,0,.018-.009.027-.022.117-.049.228-.076.34a.872.872,0,0,1-.036.148c-.014.081-.036.161-.054.242-.014.045-.022.094-.041.139s-.022.081-.031.117c-.094.367-.2.726-.314,1.084-.054.17-.108.336-.166.506,0,.018-.014.036-.018.054l-.161.457c-.018.045-.036.089-.054.139-.054.143-.108.287-.166.43-.067.174-.139.345-.211.516-.063.153-.13.3-.2.457-.009.027-.022.049-.031.076-.076.161-.148.323-.224.48s-.157.332-.242.5c-.161.327-.336.654-.511.972l-.242.43a26.373,26.373,0,0,1-2.29,3.334q-.168.222-.35.43c-.166.2-.336.4-.506.591-.153.17-.3.34-.462.506q-.645.692-1.318,1.313c-.09.089-.183.17-.278.255-.153.139-.3.273-.462.4-.121.108-.246.211-.372.314-.323.264-.645.52-.972.757-.134.1-.273.2-.412.3-.224.161-.453.314-.681.462-.126.085-.255.166-.385.242-.457.282-.919.542-1.376.766-.112.058-.224.112-.336.166s-.228.108-.35.161q-.222.1-.444.188a1.437,1.437,0,0,1-.175.067c-.175.072-.354.139-.529.2-.219.081-.444.148-.663.211-.153.045-.309.085-.462.121a.062.062,0,0,1-.031.009c-.153.036-.3.072-.457.1a1.175,1.175,0,0,1-.121.023c-.126.022-.251.045-.377.058a5.361,5.361,0,0,1-.538.058,1.238,1.238,0,0,1-.183.014c-.143.009-.287.014-.426.014H41c-.139,0-.278,0-.417-.014a.958.958,0,0,1-.161-.014c-.126,0-.255-.018-.39-.036a.517.517,0,0,1-.085-.009c-.166-.022-.332-.049-.5-.081-.143-.023-.287-.054-.435-.09a12.913,12.913,0,0,1-2.352-.793A17.213,17.213,0,0,1,34.6,57.378c-.345-.211-.69-.435-1.031-.672-.17-.121-.34-.242-.511-.368q-.8-.585-1.582-1.273c-.143-.13-.287-.26-.43-.394s-.287-.265-.426-.394q-.524-.5-1.022-1.048-.195-.209-.39-.43c-.358-.4-.708-.82-1.039-1.255-.13-.156-.251-.318-.372-.479q-.679-.9-1.286-1.878c-.108-.174-.215-.353-.318-.529-.126-.211-.246-.426-.367-.641a24.431,24.431,0,0,1-1.219-2.509c-.054-.126-.108-.251-.153-.376-.071-.161-.134-.327-.193-.489q-.135-.356-.255-.713c-.081-.238-.157-.48-.233-.721s-.139-.466-.2-.7-.139-.506-.2-.766c0-.027-.014-.054-.018-.081q-.127-.537-.228-1.089c-.09-.484-.161-.977-.215-1.474-.023-.156-.036-.314-.049-.47s-.031-.327-.041-.493c-.022-.3-.036-.605-.045-.91,0-.2-.009-.394-.009-.591V23A18.243,18.243,0,0,1,41,4.763h.018a18.444,18.444,0,0,1,4.041.448,18.3,18.3,0,0,1,10.315,6.542,18.122,18.122,0,0,1,3.88,11.09C59.261,22.9,59.261,22.951,59.261,23Z"/></g><g class="e"><path class="f" d="M64.786,87.489v0H17.248v0a23.647,23.647,0,0,1,1.268-7.676q.222-.652.484-1.29v0c.17-.426.358-.842.555-1.254a23.494,23.494,0,0,1,2.895-4.615c.287-.354.578-.7.878-1.031.148-.17.3-.336.462-.5s.314-.323.475-.484a23.606,23.606,0,0,1,2.568-2.214c.452-.336.91-.65,1.385-.954s.959-.587,1.452-.856a.028.028,0,0,1,.018-.009c.193-.1.381-.215.569-.332a14.187,14.187,0,0,0,1.609-1.12,14.985,14.985,0,0,0,5.673-11.763L41,53.4l3.562.018A14.972,14.972,0,0,0,50.2,65.153a12.161,12.161,0,0,0,.995.735c.036.027.067.049.1.071.161.108.323.215.493.314s.372.224.56.327a.222.222,0,0,1,.081.04c.394.22.784.448,1.165.686.184.112.367.228.547.358.372.238.735.5,1.089.767a0,0,0,0,0,0,0h0c.453.336.892.695,1.322,1.062s.842.753,1.241,1.152A23.644,23.644,0,0,1,64.786,87.489Z"/></g><g class="e"><path class="g" d="M64.784,87.488H17.247a23.645,23.645,0,0,1,1.268-7.676q.222-.652.484-1.29v0c.17-.426.359-.842.556-1.255a23.5,23.5,0,0,1,2.895-4.615c.287-.354.578-.7.878-1.03.148-.17.3-.336.462-.5s.314-.323.475-.484a23.6,23.6,0,0,1,2.567-2.214c.453-.336.91-.65,1.385-.954.246-.156.493-.309.744-.457.233-.139.471-.274.708-.4a.015.015,0,0,1,.018,0v0c.193-.108.381-.215.569-.327a13.843,13.843,0,0,0,1.6-1.129l.009.009A12.773,12.773,0,0,0,41,69h.036A12.8,12.8,0,0,0,50.2,65.15l0,0a12.053,12.053,0,0,0,.99.74c.036.027.067.049.1.071.161.108.327.211.493.314.183.112.372.22.56.323a.449.449,0,0,1,.081.041c.211.117.426.238.632.363.18.108.359.215.533.327s.367.228.547.358c.372.238.735.5,1.089.767h.009c.452.34.9.695,1.322,1.066s.842.753,1.241,1.152A23.648,23.648,0,0,1,64.784,87.488Z"/></g><g class="e"><path class="h" d="M59.261,36.631c0,.2,0,.394-.009.591,0,.161-.009.318-.018.48q-.007.215-.027.43c0,.1-.014.206-.022.309,0,.063-.009.121-.018.184-.009.112-.018.228-.036.34-.023.215-.045.43-.076.641,0,.054-.014.108-.022.161-.014.108-.031.215-.049.323-.022.161-.054.323-.081.48-.036.188-.072.372-.112.555a.855.855,0,0,1-.023.112c0,.031-.014.063-.018.094,0,.009,0,.018-.009.027a.235.235,0,0,1-.009.058c-.022.094-.041.188-.067.282a.872.872,0,0,1-.036.148,2.669,2.669,0,0,1-.067.26.561.561,0,0,1-.027.121c-.009.041-.022.081-.031.117-.094.367-.2.726-.314,1.084-.054.17-.108.336-.166.506,0,.018-.014.036-.018.054l-.161.457c-.018.045-.036.089-.054.139-.054.143-.108.287-.166.43-.067.174-.139.345-.211.516-.063.153-.13.3-.2.457-.009.027-.022.049-.031.076-.076.161-.148.323-.224.48s-.157.332-.242.5c-.161.327-.336.654-.511.972l-.242.43a26.373,26.373,0,0,1-2.29,3.334q-.168.222-.35.43c-.166.2-.336.4-.506.591-.153.17-.3.34-.462.506q-.645.692-1.318,1.313c-.09.089-.183.17-.278.255-.153.139-.3.273-.462.4-.121.108-.246.211-.372.314-.323.264-.645.52-.972.757-.134.1-.273.2-.412.3-.224.161-.453.314-.681.462-.126.085-.255.166-.385.242-.457.282-.919.542-1.376.766-.112.058-.224.112-.336.166s-.228.108-.35.161q-.222.1-.444.188a1.437,1.437,0,0,1-.175.067c-.175.072-.354.139-.529.2-.219.081-.444.148-.663.211-.153.045-.309.085-.462.121a.062.062,0,0,1-.031.009c-.153.036-.3.072-.457.1a1.175,1.175,0,0,1-.121.023c-.126.022-.251.045-.377.058a5.361,5.361,0,0,1-.538.058,1.238,1.238,0,0,1-.183.014c-.143.009-.287.014-.426.014H41c-.139,0-.278,0-.417-.014a.958.958,0,0,1-.161-.014c-.126,0-.255-.018-.39-.036a.517.517,0,0,1-.085-.009c-.166-.022-.332-.049-.5-.081-.143-.023-.287-.054-.435-.09a12.913,12.913,0,0,1-2.352-.793A17.213,17.213,0,0,1,34.6,57.378c-.345-.206-.686-.43-1.031-.672-.17-.121-.34-.242-.511-.368q-.8-.585-1.582-1.273c-.143-.13-.287-.26-.43-.394s-.287-.265-.426-.394q-.524-.5-1.022-1.048-.195-.209-.39-.43c-.358-.4-.708-.82-1.039-1.255-.13-.156-.251-.318-.372-.479q-.679-.9-1.286-1.878c-.108-.174-.215-.353-.318-.529-.126-.211-.246-.426-.367-.641a24.43,24.43,0,0,1-1.219-2.509c-.054-.126-.108-.251-.153-.376-.071-.161-.134-.327-.193-.489q-.135-.356-.255-.713c-.081-.238-.157-.48-.233-.721s-.139-.466-.2-.7-.139-.506-.2-.766c0-.027-.014-.054-.018-.081q-.127-.537-.228-1.089c-.09-.484-.161-.977-.215-1.474-.023-.156-.036-.314-.049-.47s-.031-.327-.041-.493c-.022-.3-.036-.605-.045-.91,0-.2-.009-.394-.009-.591l2.913,5.727,5.005,2.182,5.919.533h0l4.387.4h.027l4.1.372s0,0,0,0l9.155.825Z"/></g><g class="e"><path class="h" d="M41.037,39.508l0,4.414v0l0,1.546v1.214l0,4.033v0l0,0h0L41,50.71,23.378,41.74c0-.027-.014-.054-.018-.081q-.127-.537-.228-1.089c-.09-.484-.161-.977-.215-1.474-.023-.156-.036-.314-.049-.47s-.031-.327-.041-.493c-.022-.3-.036-.605-.045-.91,0-.2-.009-.394-.009-.591V31.277c0,.076,0,.153,0,.228a17.834,17.834,0,0,0,.641,4.176,18.089,18.089,0,0,0,1.143,3.078v0c1.174,2.442,2.747,4.1,4.194,4.369.09.014.183.023.273.031a15.755,15.755,0,0,0,1.752.1c2.285,0,4.315-1.837,5.592-2.581l.027-.013c.067-.041.134-.081.193-.121a.324.324,0,0,1,.054-.031A9.056,9.056,0,0,1,41,39.508h.036Z"/><path class="h" d="M59.264,31.275l0,5.355a21.962,21.962,0,0,1-.358,3.939c-.094.511-.2,1.017-.327,1.519L54.438,48.06,41.022,50.717h0l0,0v0L41,39.5h.036a9.089,9.089,0,0,1,4.36,1.008.292.292,0,0,1,.049.031c.063.04.13.081.2.121a.1.1,0,0,0,.022.014c1.281.744,3.307,2.582,5.592,2.582a15.755,15.755,0,0,0,1.752-.1c.094-.009.183-.018.278-.031,1.443-.269,3.02-1.927,4.19-4.369v0a18.126,18.126,0,0,0,1.143-3.078,17.637,17.637,0,0,0,.641-4.234C59.264,31.387,59.264,31.332,59.264,31.275Z"/></g><g class="i" transform="translate(36.545 43.922)"><ellipse class="f" cx="4.469" cy="1.382" rx="4.469" ry="1.382"/></g><g class="e"><path class="h" d="M41.018,4.763H41A18.244,18.244,0,0,0,22.773,23v8.044s.757-4.8,2.8-7.129c2.214-2.532,1.654-6.381,6.618-6.381,3.2,0,3.383,1.183,8.809,1.183h.026c5.426,0,5.606-1.183,8.809-1.183,4.965,0,4.4,3.849,6.618,6.381,2.039,2.33,2.8,7.129,2.8,7.129V23A18.244,18.244,0,0,0,41.018,4.763Z"/></g><g class="e"><path class="j" d="M53.058,67l-.493.5a16.192,16.192,0,0,1-23.135-.009l-.471-.484c.233-.139.471-.274.708-.4a.015.015,0,0,1,.018,0v0c.193-.108.381-.215.569-.327a13.843,13.843,0,0,0,1.6-1.129l.009.009A12.773,12.773,0,0,0,41,69h.036a12.8,12.8,0,0,0,9.159-3.854l0,0a12.049,12.049,0,0,0,.99.74c.036.027.067.049.1.071.161.108.327.211.493.314.183.112.372.22.56.323a.45.45,0,0,1,.081.041C52.637,66.75,52.851,66.871,53.058,67Z"/></g></g></g></svg>