<svg xmlns="http://www.w3.org/2000/svg" xmlns:xlink="http://www.w3.org/1999/xlink" width="71.09" height="67.304" viewBox="0 0 71.09 67.304">
  <defs>
    <linearGradient id="linear-gradient" y1="0.5" x2="1" y2="0.5" gradientUnits="objectBoundingBox">
      <stop offset="0" stop-color="#d08529"/>
      <stop offset="0.124" stop-color="#fac43c"/>
      <stop offset="0.256" stop-color="#fef2ae"/>
      <stop offset="0.36" stop-color="#fcf26f"/>
      <stop offset="0.489" stop-color="#fbc636"/>
      <stop offset="0.618" stop-color="#edb62c"/>
      <stop offset="0.747" stop-color="#fbd95d"/>
      <stop offset="0.869" stop-color="#d08429"/>
      <stop offset="1" stop-color="#f9c23a"/>
    </linearGradient>
  </defs>
  <g id="Vector_Smart_Object" data-name="Vector Smart Object" transform="translate(-70.768 -62.245)">
    <g id="Group_1565" data-name="Group 1565" transform="translate(70.768 62.245)">
      <g id="Group_1558" data-name="Group 1558">
        <path id="Path_4121" data-name="Path 4121" d="M141.935,96.161l-2.82,2.425,2.39,2.809-3.185,1.979,1.895,3.13-3.475,1.479,1.35,3.373-3.677.943.775,3.532-3.788.388.184,3.6-3.806-.175-.41,3.586-3.73-.734-1,3.482-3.563-1.278-1.562,3.29-3.306-1.794-2.09,3.016-2.967-2.263-2.561,2.67-2.561-2.67-2.967,2.263-2.09-3.016-3.306,1.794-1.562-3.29-3.563,1.278-1-3.482-3.73.734-.41-3.586-3.806.175.185-3.6L78,115.831l.775-3.532-3.677-.943,1.35-3.373L72.971,106.5l1.895-3.13L71.68,101.4l2.39-2.809-2.82-2.425,2.82-2.425-2.39-2.809,3.185-1.979-1.895-3.13,3.475-1.479L75.1,80.967l3.677-.943L78,76.492l3.788-.388L81.6,72.5l3.806.175.41-3.586,3.73.734,1-3.482,3.563,1.278,1.562-3.29,3.306,1.794,2.09-3.016,2.967,2.263,2.561-2.67,2.561,2.67,2.967-2.263,2.09,3.016,3.306-1.794,1.562,3.29,3.563-1.278,1,3.482,3.73-.734.41,3.586,3.806-.175-.185,3.6,3.788.388-.775,3.532,3.677.943-1.35,3.373,3.475,1.479-1.895,3.13,3.185,1.979-2.39,2.809Z" transform="translate(-71.047 -62.509)" fill="url(#linear-gradient)"/>
        <path id="Path_4122" data-name="Path 4122" d="M106.314,129.55l-2.576-2.685-2.984,2.276-2.1-3.033-3.325,1.8L93.756,124.6l-3.583,1.286-1-3.5-3.752.738-.412-3.607-3.827.176.185-3.623-3.809-.39.78-3.552-3.7-.949,1.358-3.392L72.5,106.3l1.906-3.148-3.2-1.99,2.4-2.825L70.768,95.9,73.6,93.459l-2.4-2.825,3.2-1.99L72.5,85.5l3.5-1.488-1.358-3.392,3.7-.949-.78-3.552,3.81-.39L81.18,72.1l3.827.176.412-3.607,3.751.738,1-3.5,3.583,1.286,1.571-3.309,3.325,1.8,2.1-3.033,2.984,2.276,2.576-2.685,2.576,2.685,2.984-2.276,2.1,3.033,3.325-1.8,1.571,3.309,3.583-1.286,1,3.5,3.752-.738.412,3.607,3.827-.176-.186,3.623,3.81.39-.78,3.552,3.7.949-1.358,3.392,3.5,1.487-1.906,3.148,3.2,1.99-2.4,2.825,2.836,2.439-2.836,2.439,2.4,2.825-3.2,1.99,1.906,3.148-3.5,1.487,1.358,3.392-3.7.949.779,3.552-3.809.39.185,3.623-3.827-.176-.412,3.607-3.752-.738-1,3.5-3.583-1.286-1.571,3.309-3.325-1.8-2.1,3.033-2.984-2.276Zm-2.547-3.038,2.547,2.655,2.547-2.655,2.95,2.25,2.078-3,3.287,1.783,1.553-3.271,3.542,1.271.991-3.462,3.709.73.407-3.566,3.784.174-.183-3.582,3.766-.386-.771-3.512L137.63,111l-1.342-3.354,3.455-1.47-1.883-3.112,3.167-1.967-2.377-2.793,2.8-2.411-2.8-2.411,2.377-2.793-3.167-1.967,1.883-3.111-3.455-1.471,1.342-3.353-3.656-.938.771-3.511-3.766-.386.184-3.582-3.784.174-.407-3.566-3.709.73-.991-3.462-3.542,1.271-1.553-3.271-3.287,1.783-2.078-3-2.95,2.25-2.547-2.655-2.547,2.655-2.95-2.25-2.078,3-3.287-1.783L93.9,67.52l-3.542-1.271-.991,3.462-3.709-.73-.407,3.566-3.784-.174.183,3.582-3.766.386.771,3.511L75,80.79l1.342,3.354-3.455,1.471,1.883,3.112L71.6,90.693l2.377,2.793-2.8,2.411,2.8,2.411L71.6,101.1l3.167,1.967-1.884,3.111,3.455,1.47L75,111l3.656.938-.771,3.512,3.766.386-.183,3.582,3.784-.174.407,3.566,3.709-.73.991,3.462,3.542-1.271,1.553,3.271,3.287-1.783,2.078,3Z" transform="translate(-70.768 -62.245)" fill="#414042"/>
      </g>
      <g id="Group_1559" data-name="Group 1559" transform="translate(5.519 5.171)">
        <path id="Path_4123" data-name="Path 4123" d="M113.915,131.391a30.7,30.7,0,0,1-21.232-8.326,27.369,27.369,0,0,1,0-40.2,31.234,31.234,0,0,1,42.464,0,27.369,27.369,0,0,1,0,40.2A30.7,30.7,0,0,1,113.915,131.391Zm0-56.6c-16.406,0-29.752,12.636-29.752,28.168s13.347,28.168,29.752,28.168,29.752-12.636,29.752-28.168S130.32,74.8,113.915,74.8Z" transform="translate(-83.888 -74.537)" fill="#414042"/>
      </g>
      <g id="Group_1560" data-name="Group 1560" transform="translate(7.02 6.617)">
        <path id="Path_4124" data-name="Path 4124" d="M115.982,131.989c-15.729,0-28.525-12.115-28.525-27.006s12.8-27.006,28.525-27.006,28.525,12.115,28.525,27.006S131.711,131.989,115.982,131.989Zm0-53.065c-15.177,0-27.525,11.69-27.525,26.059s12.348,26.059,27.525,26.059,27.525-11.69,27.525-26.059S131.159,78.924,115.982,78.924Z" transform="translate(-87.457 -77.977)" fill="#414042"/>
      </g>
      <path id="Path_4125" data-name="Path 4125" d="M127.149,116a3.319,3.319,0,0,0-.19-.781.98.98,0,0,0-.3-.429.664.664,0,0,0-.4-.129.671.671,0,0,0-.4.129.965.965,0,0,0-.3.429,3.347,3.347,0,0,0-.185.781,9.043,9.043,0,0,0-.064,1.185v2.829a9.3,9.3,0,0,0,.064,1.206,3.179,3.179,0,0,0,.188.779.972.972,0,0,0,.3.425.674.674,0,0,0,.4.129.656.656,0,0,0,.4-.129.991.991,0,0,0,.3-.425,3.178,3.178,0,0,0,.188-.779,9.556,9.556,0,0,0,.064-1.206v-2.829A8.759,8.759,0,0,0,127.149,116Zm6.648,0a3.321,3.321,0,0,0-.19-.781.98.98,0,0,0-.3-.429.688.688,0,0,0-.8,0,.965.965,0,0,0-.3.429,3.279,3.279,0,0,0-.185.781,9.015,9.015,0,0,0-.065,1.185v2.829a9.274,9.274,0,0,0,.065,1.206,3.059,3.059,0,0,0,.188.779.961.961,0,0,0,.3.425.674.674,0,0,0,.4.129.649.649,0,0,0,.395-.129.981.981,0,0,0,.3-.425,3.18,3.18,0,0,0,.188-.779,9.556,9.556,0,0,0,.064-1.206v-2.829A8.759,8.759,0,0,0,133.8,116Zm0,0a3.321,3.321,0,0,0-.19-.781.98.98,0,0,0-.3-.429.688.688,0,0,0-.8,0,.965.965,0,0,0-.3.429,3.279,3.279,0,0,0-.185.781,9.015,9.015,0,0,0-.065,1.185v2.829a9.274,9.274,0,0,0,.065,1.206,3.059,3.059,0,0,0,.188.779.961.961,0,0,0,.3.425.674.674,0,0,0,.4.129.649.649,0,0,0,.395-.129.981.981,0,0,0,.3-.425,3.18,3.18,0,0,0,.188-.779,9.556,9.556,0,0,0,.064-1.206v-2.829A8.759,8.759,0,0,0,133.8,116Zm-6.648,0a3.319,3.319,0,0,0-.19-.781.98.98,0,0,0-.3-.429.664.664,0,0,0-.4-.129.671.671,0,0,0-.4.129.965.965,0,0,0-.3.429,3.347,3.347,0,0,0-.185.781,9.043,9.043,0,0,0-.064,1.185v2.829a9.3,9.3,0,0,0,.064,1.206,3.179,3.179,0,0,0,.188.779.972.972,0,0,0,.3.425.674.674,0,0,0,.4.129.656.656,0,0,0,.4-.129.991.991,0,0,0,.3-.425,3.178,3.178,0,0,0,.188-.779,9.556,9.556,0,0,0,.064-1.206v-2.829A8.759,8.759,0,0,0,127.149,116Zm0,0a3.319,3.319,0,0,0-.19-.781.98.98,0,0,0-.3-.429.664.664,0,0,0-.4-.129.671.671,0,0,0-.4.129.965.965,0,0,0-.3.429,3.347,3.347,0,0,0-.185.781,9.043,9.043,0,0,0-.064,1.185v2.829a9.3,9.3,0,0,0,.064,1.206,3.179,3.179,0,0,0,.188.779.972.972,0,0,0,.3.425.674.674,0,0,0,.4.129.656.656,0,0,0,.4-.129.991.991,0,0,0,.3-.425,3.178,3.178,0,0,0,.188-.779,9.556,9.556,0,0,0,.064-1.206v-2.829A8.759,8.759,0,0,0,127.149,116Zm6.648,0a3.321,3.321,0,0,0-.19-.781.98.98,0,0,0-.3-.429.688.688,0,0,0-.8,0,.965.965,0,0,0-.3.429,3.279,3.279,0,0,0-.185.781,9.015,9.015,0,0,0-.065,1.185v2.829a9.274,9.274,0,0,0,.065,1.206,3.059,3.059,0,0,0,.188.779.961.961,0,0,0,.3.425.674.674,0,0,0,.4.129.649.649,0,0,0,.395-.129.981.981,0,0,0,.3-.425,3.18,3.18,0,0,0,.188-.779,9.556,9.556,0,0,0,.064-1.206v-2.829A8.759,8.759,0,0,0,133.8,116Zm6.225-1.382a1.157,1.157,0,0,0-.109-.308.593.593,0,0,0-.188-.21.47.47,0,0,0-.267-.077.455.455,0,0,0-.264.077.634.634,0,0,0-.188.21,1.07,1.07,0,0,0-.112.308,1.773,1.773,0,0,0-.037.367v.622a1.683,1.683,0,0,0,.037.357,1.064,1.064,0,0,0,.112.3.6.6,0,0,0,.192.21.471.471,0,0,0,.271.077.455.455,0,0,0,.264-.077.57.57,0,0,0,.182-.21,1.2,1.2,0,0,0,.106-.3,1.682,1.682,0,0,0,.037-.357v-.622A1.772,1.772,0,0,0,140.022,114.617Zm0,0a1.157,1.157,0,0,0-.109-.308.593.593,0,0,0-.188-.21.47.47,0,0,0-.267-.077.455.455,0,0,0-.264.077.634.634,0,0,0-.188.21,1.07,1.07,0,0,0-.112.308,1.773,1.773,0,0,0-.037.367v.622a1.683,1.683,0,0,0,.037.357,1.064,1.064,0,0,0,.112.3.6.6,0,0,0,.192.21.471.471,0,0,0,.271.077.455.455,0,0,0,.264-.077.57.57,0,0,0,.182-.21,1.2,1.2,0,0,0,.106-.3,1.682,1.682,0,0,0,.037-.357v-.622A1.772,1.772,0,0,0,140.022,114.617ZM133.8,116a3.321,3.321,0,0,0-.19-.781.98.98,0,0,0-.3-.429.688.688,0,0,0-.8,0,.965.965,0,0,0-.3.429,3.279,3.279,0,0,0-.185.781,9.015,9.015,0,0,0-.065,1.185v2.829a9.274,9.274,0,0,0,.065,1.206,3.059,3.059,0,0,0,.188.779.961.961,0,0,0,.3.425.674.674,0,0,0,.4.129.649.649,0,0,0,.395-.129.981.981,0,0,0,.3-.425,3.18,3.18,0,0,0,.188-.779,9.556,9.556,0,0,0,.064-1.206v-2.829A8.759,8.759,0,0,0,133.8,116Zm-6.648,0a3.319,3.319,0,0,0-.19-.781.98.98,0,0,0-.3-.429.664.664,0,0,0-.4-.129.671.671,0,0,0-.4.129.965.965,0,0,0-.3.429,3.347,3.347,0,0,0-.185.781,9.043,9.043,0,0,0-.064,1.185v2.829a9.3,9.3,0,0,0,.064,1.206,3.179,3.179,0,0,0,.188.779.972.972,0,0,0,.3.425.674.674,0,0,0,.4.129.656.656,0,0,0,.4-.129.991.991,0,0,0,.3-.425,3.178,3.178,0,0,0,.188-.779,9.556,9.556,0,0,0,.064-1.206v-2.829A8.759,8.759,0,0,0,127.149,116Zm0,0a3.319,3.319,0,0,0-.19-.781.98.98,0,0,0-.3-.429.664.664,0,0,0-.4-.129.671.671,0,0,0-.4.129.965.965,0,0,0-.3.429,3.347,3.347,0,0,0-.185.781,9.043,9.043,0,0,0-.064,1.185v2.829a9.3,9.3,0,0,0,.064,1.206,3.179,3.179,0,0,0,.188.779.972.972,0,0,0,.3.425.674.674,0,0,0,.4.129.656.656,0,0,0,.4-.129.991.991,0,0,0,.3-.425,3.178,3.178,0,0,0,.188-.779,9.556,9.556,0,0,0,.064-1.206v-2.829A8.759,8.759,0,0,0,127.149,116Zm6.648,0a3.321,3.321,0,0,0-.19-.781.98.98,0,0,0-.3-.429.688.688,0,0,0-.8,0,.965.965,0,0,0-.3.429,3.279,3.279,0,0,0-.185.781,9.015,9.015,0,0,0-.065,1.185v2.829a9.274,9.274,0,0,0,.065,1.206,3.059,3.059,0,0,0,.188.779.961.961,0,0,0,.3.425.674.674,0,0,0,.4.129.649.649,0,0,0,.395-.129.981.981,0,0,0,.3-.425,3.18,3.18,0,0,0,.188-.779,9.556,9.556,0,0,0,.064-1.206v-2.829A8.759,8.759,0,0,0,133.8,116Zm6.225-1.382a1.157,1.157,0,0,0-.109-.308.593.593,0,0,0-.188-.21.47.47,0,0,0-.267-.077.455.455,0,0,0-.264.077.634.634,0,0,0-.188.21,1.07,1.07,0,0,0-.112.308,1.773,1.773,0,0,0-.037.367v.622a1.683,1.683,0,0,0,.037.357,1.064,1.064,0,0,0,.112.3.6.6,0,0,0,.192.21.471.471,0,0,0,.271.077.455.455,0,0,0,.264-.077.57.57,0,0,0,.182-.21,1.2,1.2,0,0,0,.106-.3,1.682,1.682,0,0,0,.037-.357v-.622A1.772,1.772,0,0,0,140.022,114.617Zm3.885,6.631a1.071,1.071,0,0,0-.112-.308.617.617,0,0,0-.192-.21.5.5,0,0,0-.532,0,.613.613,0,0,0-.191.21,1.033,1.033,0,0,0-.112.308,1.734,1.734,0,0,0-.037.359v.622a1.377,1.377,0,0,0,.048.361,1.124,1.124,0,0,0,.132.307.691.691,0,0,0,.2.21.417.417,0,0,0,.241.077.557.557,0,0,0,.309-.077.5.5,0,0,0,.181-.21.908.908,0,0,0,.084-.307,3.088,3.088,0,0,0,.02-.361v-.622A1.733,1.733,0,0,0,143.907,121.247Zm0,0a1.071,1.071,0,0,0-.112-.308.617.617,0,0,0-.192-.21.5.5,0,0,0-.532,0,.613.613,0,0,0-.191.21,1.033,1.033,0,0,0-.112.308,1.734,1.734,0,0,0-.037.359v.622a1.377,1.377,0,0,0,.048.361,1.124,1.124,0,0,0,.132.307.691.691,0,0,0,.2.21.417.417,0,0,0,.241.077.557.557,0,0,0,.309-.077.5.5,0,0,0,.181-.21.908.908,0,0,0,.084-.307,3.088,3.088,0,0,0,.02-.361v-.622A1.733,1.733,0,0,0,143.907,121.247ZM133.8,116a3.321,3.321,0,0,0-.19-.781.98.98,0,0,0-.3-.429.688.688,0,0,0-.8,0,.965.965,0,0,0-.3.429,3.279,3.279,0,0,0-.185.781,9.015,9.015,0,0,0-.065,1.185v2.829a9.274,9.274,0,0,0,.065,1.206,3.059,3.059,0,0,0,.188.779.961.961,0,0,0,.3.425.674.674,0,0,0,.4.129.649.649,0,0,0,.395-.129.981.981,0,0,0,.3-.425,3.18,3.18,0,0,0,.188-.779,9.556,9.556,0,0,0,.064-1.206v-2.829A8.759,8.759,0,0,0,133.8,116Zm-6.648,0a3.319,3.319,0,0,0-.19-.781.98.98,0,0,0-.3-.429.664.664,0,0,0-.4-.129.671.671,0,0,0-.4.129.965.965,0,0,0-.3.429,3.347,3.347,0,0,0-.185.781,9.043,9.043,0,0,0-.064,1.185v2.829a9.3,9.3,0,0,0,.064,1.206,3.179,3.179,0,0,0,.188.779.972.972,0,0,0,.3.425.674.674,0,0,0,.4.129.656.656,0,0,0,.4-.129.991.991,0,0,0,.3-.425,3.178,3.178,0,0,0,.188-.779,9.556,9.556,0,0,0,.064-1.206v-2.829A8.759,8.759,0,0,0,127.149,116Zm12.874-1.382a1.157,1.157,0,0,0-.109-.308.593.593,0,0,0-.188-.21.47.47,0,0,0-.267-.077.455.455,0,0,0-.264.077.634.634,0,0,0-.188.21,1.07,1.07,0,0,0-.112.308,1.773,1.773,0,0,0-.037.367v.622a1.683,1.683,0,0,0,.037.357,1.064,1.064,0,0,0,.112.3.6.6,0,0,0,.192.21.471.471,0,0,0,.271.077.455.455,0,0,0,.264-.077.57.57,0,0,0,.182-.21,1.2,1.2,0,0,0,.106-.3,1.682,1.682,0,0,0,.037-.357v-.622A1.772,1.772,0,0,0,140.022,114.617ZM127.149,116a3.319,3.319,0,0,0-.19-.781.98.98,0,0,0-.3-.429.664.664,0,0,0-.4-.129.671.671,0,0,0-.4.129.965.965,0,0,0-.3.429,3.347,3.347,0,0,0-.185.781,9.043,9.043,0,0,0-.064,1.185v2.829a9.3,9.3,0,0,0,.064,1.206,3.179,3.179,0,0,0,.188.779.972.972,0,0,0,.3.425.674.674,0,0,0,.4.129.656.656,0,0,0,.4-.129.991.991,0,0,0,.3-.425,3.178,3.178,0,0,0,.188-.779,9.556,9.556,0,0,0,.064-1.206v-2.829A8.759,8.759,0,0,0,127.149,116Zm6.648,0a3.321,3.321,0,0,0-.19-.781.98.98,0,0,0-.3-.429.688.688,0,0,0-.8,0,.965.965,0,0,0-.3.429,3.279,3.279,0,0,0-.185.781,9.015,9.015,0,0,0-.065,1.185v2.829a9.274,9.274,0,0,0,.065,1.206,3.059,3.059,0,0,0,.188.779.961.961,0,0,0,.3.425.674.674,0,0,0,.4.129.649.649,0,0,0,.395-.129.981.981,0,0,0,.3-.425,3.18,3.18,0,0,0,.188-.779,9.556,9.556,0,0,0,.064-1.206v-2.829A8.759,8.759,0,0,0,133.8,116Zm6.225-1.382a1.157,1.157,0,0,0-.109-.308.593.593,0,0,0-.188-.21.47.47,0,0,0-.267-.077.455.455,0,0,0-.264.077.634.634,0,0,0-.188.21,1.07,1.07,0,0,0-.112.308,1.773,1.773,0,0,0-.037.367v.622a1.683,1.683,0,0,0,.037.357,1.064,1.064,0,0,0,.112.3.6.6,0,0,0,.192.21.471.471,0,0,0,.271.077.455.455,0,0,0,.264-.077.57.57,0,0,0,.182-.21,1.2,1.2,0,0,0,.106-.3,1.682,1.682,0,0,0,.037-.357v-.622A1.772,1.772,0,0,0,140.022,114.617Zm3.885,6.631a1.071,1.071,0,0,0-.112-.308.617.617,0,0,0-.192-.21.5.5,0,0,0-.532,0,.613.613,0,0,0-.191.21,1.033,1.033,0,0,0-.112.308,1.734,1.734,0,0,0-.037.359v.622a1.377,1.377,0,0,0,.048.361,1.124,1.124,0,0,0,.132.307.691.691,0,0,0,.2.21.417.417,0,0,0,.241.077.557.557,0,0,0,.309-.077.5.5,0,0,0,.181-.21.908.908,0,0,0,.084-.307,3.088,3.088,0,0,0,.02-.361v-.622A1.733,1.733,0,0,0,143.907,121.247Zm0,0a1.071,1.071,0,0,0-.112-.308.617.617,0,0,0-.192-.21.5.5,0,0,0-.532,0,.613.613,0,0,0-.191.21,1.033,1.033,0,0,0-.112.308,1.734,1.734,0,0,0-.037.359v.622a1.377,1.377,0,0,0,.048.361,1.124,1.124,0,0,0,.132.307.691.691,0,0,0,.2.21.417.417,0,0,0,.241.077.557.557,0,0,0,.309-.077.5.5,0,0,0,.181-.21.908.908,0,0,0,.084-.307,3.088,3.088,0,0,0,.02-.361v-.622A1.733,1.733,0,0,0,143.907,121.247ZM133.8,116a3.321,3.321,0,0,0-.19-.781.98.98,0,0,0-.3-.429.688.688,0,0,0-.8,0,.965.965,0,0,0-.3.429,3.279,3.279,0,0,0-.185.781,9.015,9.015,0,0,0-.065,1.185v2.829a9.274,9.274,0,0,0,.065,1.206,3.059,3.059,0,0,0,.188.779.961.961,0,0,0,.3.425.674.674,0,0,0,.4.129.649.649,0,0,0,.395-.129.981.981,0,0,0,.3-.425,3.18,3.18,0,0,0,.188-.779,9.556,9.556,0,0,0,.064-1.206v-2.829A8.759,8.759,0,0,0,133.8,116Zm-6.648,0a3.319,3.319,0,0,0-.19-.781.98.98,0,0,0-.3-.429.664.664,0,0,0-.4-.129.671.671,0,0,0-.4.129.965.965,0,0,0-.3.429,3.347,3.347,0,0,0-.185.781,9.043,9.043,0,0,0-.064,1.185v2.829a9.3,9.3,0,0,0,.064,1.206,3.179,3.179,0,0,0,.188.779.972.972,0,0,0,.3.425.674.674,0,0,0,.4.129.656.656,0,0,0,.4-.129.991.991,0,0,0,.3-.425,3.178,3.178,0,0,0,.188-.779,9.556,9.556,0,0,0,.064-1.206v-2.829A8.759,8.759,0,0,0,127.149,116Zm12.874-1.382a1.157,1.157,0,0,0-.109-.308.593.593,0,0,0-.188-.21.47.47,0,0,0-.267-.077.455.455,0,0,0-.264.077.634.634,0,0,0-.188.21,1.07,1.07,0,0,0-.112.308,1.773,1.773,0,0,0-.037.367v.622a1.683,1.683,0,0,0,.037.357,1.064,1.064,0,0,0,.112.3.6.6,0,0,0,.192.21.471.471,0,0,0,.271.077.455.455,0,0,0,.264-.077.57.57,0,0,0,.182-.21,1.2,1.2,0,0,0,.106-.3,1.682,1.682,0,0,0,.037-.357v-.622A1.772,1.772,0,0,0,140.022,114.617ZM127.149,116a3.319,3.319,0,0,0-.19-.781.98.98,0,0,0-.3-.429.664.664,0,0,0-.4-.129.671.671,0,0,0-.4.129.965.965,0,0,0-.3.429,3.347,3.347,0,0,0-.185.781,9.043,9.043,0,0,0-.064,1.185v2.829a9.3,9.3,0,0,0,.064,1.206,3.179,3.179,0,0,0,.188.779.972.972,0,0,0,.3.425.674.674,0,0,0,.4.129.656.656,0,0,0,.4-.129.991.991,0,0,0,.3-.425,3.178,3.178,0,0,0,.188-.779,9.556,9.556,0,0,0,.064-1.206v-2.829A8.759,8.759,0,0,0,127.149,116Zm6.648,0a3.321,3.321,0,0,0-.19-.781.98.98,0,0,0-.3-.429.688.688,0,0,0-.8,0,.965.965,0,0,0-.3.429,3.279,3.279,0,0,0-.185.781,9.015,9.015,0,0,0-.065,1.185v2.829a9.274,9.274,0,0,0,.065,1.206,3.059,3.059,0,0,0,.188.779.961.961,0,0,0,.3.425.674.674,0,0,0,.4.129.649.649,0,0,0,.395-.129.981.981,0,0,0,.3-.425,3.18,3.18,0,0,0,.188-.779,9.556,9.556,0,0,0,.064-1.206v-2.829A8.759,8.759,0,0,0,133.8,116Zm6.225-1.382a1.157,1.157,0,0,0-.109-.308.593.593,0,0,0-.188-.21.47.47,0,0,0-.267-.077.455.455,0,0,0-.264.077.634.634,0,0,0-.188.21,1.07,1.07,0,0,0-.112.308,1.773,1.773,0,0,0-.037.367v.622a1.683,1.683,0,0,0,.037.357,1.064,1.064,0,0,0,.112.3.6.6,0,0,0,.192.21.471.471,0,0,0,.271.077.455.455,0,0,0,.264-.077.57.57,0,0,0,.182-.21,1.2,1.2,0,0,0,.106-.3,1.682,1.682,0,0,0,.037-.357v-.622A1.772,1.772,0,0,0,140.022,114.617Zm3.885,6.631a1.071,1.071,0,0,0-.112-.308.617.617,0,0,0-.192-.21.5.5,0,0,0-.532,0,.613.613,0,0,0-.191.21,1.033,1.033,0,0,0-.112.308,1.734,1.734,0,0,0-.037.359v.622a1.377,1.377,0,0,0,.048.361,1.124,1.124,0,0,0,.132.307.691.691,0,0,0,.2.21.417.417,0,0,0,.241.077.557.557,0,0,0,.309-.077.5.5,0,0,0,.181-.21.908.908,0,0,0,.084-.307,3.088,3.088,0,0,0,.02-.361v-.622A1.733,1.733,0,0,0,143.907,121.247Zm0,0a1.071,1.071,0,0,0-.112-.308.617.617,0,0,0-.192-.21.5.5,0,0,0-.532,0,.613.613,0,0,0-.191.21,1.033,1.033,0,0,0-.112.308,1.734,1.734,0,0,0-.037.359v.622a1.377,1.377,0,0,0,.048.361,1.124,1.124,0,0,0,.132.307.691.691,0,0,0,.2.21.417.417,0,0,0,.241.077.557.557,0,0,0,.309-.077.5.5,0,0,0,.181-.21.908.908,0,0,0,.084-.307,3.088,3.088,0,0,0,.02-.361v-.622A1.733,1.733,0,0,0,143.907,121.247ZM133.8,116a3.321,3.321,0,0,0-.19-.781.98.98,0,0,0-.3-.429.688.688,0,0,0-.8,0,.965.965,0,0,0-.3.429,3.279,3.279,0,0,0-.185.781,9.015,9.015,0,0,0-.065,1.185v2.829a9.274,9.274,0,0,0,.065,1.206,3.059,3.059,0,0,0,.188.779.961.961,0,0,0,.3.425.674.674,0,0,0,.4.129.649.649,0,0,0,.395-.129.981.981,0,0,0,.3-.425,3.18,3.18,0,0,0,.188-.779,9.556,9.556,0,0,0,.064-1.206v-2.829A8.759,8.759,0,0,0,133.8,116Zm-6.648,0a3.319,3.319,0,0,0-.19-.781.98.98,0,0,0-.3-.429.664.664,0,0,0-.4-.129.671.671,0,0,0-.4.129.965.965,0,0,0-.3.429,3.347,3.347,0,0,0-.185.781,9.043,9.043,0,0,0-.064,1.185v2.829a9.3,9.3,0,0,0,.064,1.206,3.179,3.179,0,0,0,.188.779.972.972,0,0,0,.3.425.674.674,0,0,0,.4.129.656.656,0,0,0,.4-.129.991.991,0,0,0,.3-.425,3.178,3.178,0,0,0,.188-.779,9.556,9.556,0,0,0,.064-1.206v-2.829A8.759,8.759,0,0,0,127.149,116Zm12.874-1.382a1.157,1.157,0,0,0-.109-.308.593.593,0,0,0-.188-.21.47.47,0,0,0-.267-.077.455.455,0,0,0-.264.077.634.634,0,0,0-.188.21,1.07,1.07,0,0,0-.112.308,1.773,1.773,0,0,0-.037.367v.622a1.683,1.683,0,0,0,.037.357,1.064,1.064,0,0,0,.112.3.6.6,0,0,0,.192.21.471.471,0,0,0,.271.077.455.455,0,0,0,.264-.077.57.57,0,0,0,.182-.21,1.2,1.2,0,0,0,.106-.3,1.682,1.682,0,0,0,.037-.357v-.622A1.772,1.772,0,0,0,140.022,114.617Zm-8.3-12c-9.445,0-17.1,7.248-17.1,16.189s7.655,16.188,17.1,16.188,17.1-7.248,17.1-16.188S141.161,102.617,131.718,102.617Zm8.543,10.127a1.683,1.683,0,0,1,.566.526,2.446,2.446,0,0,1,.336.773,3.8,3.8,0,0,1,.113.942v.622a3.765,3.765,0,0,1-.113.934,2.387,2.387,0,0,1-.336.769,1.715,1.715,0,0,1-.563.522,1.573,1.573,0,0,1-.793.193,1.594,1.594,0,0,1-.8-.193,1.769,1.769,0,0,1-.572-.522,2.369,2.369,0,0,1-.344-.769,3.7,3.7,0,0,1-.116-.934v-.622a3.74,3.74,0,0,1,.116-.942,2.455,2.455,0,0,1,.342-.773,1.717,1.717,0,0,1,.569-.526,1.58,1.58,0,0,1,.791-.193A1.6,1.6,0,0,1,140.26,112.743Zm-9.4-6.793.86-1.646.859,1.646,1.92.264-1.389,1.283.328,1.81-1.717-.854-1.719.854.328-1.81-1.389-1.283Zm-5.82,1.158.475-.91.475.91,1.06.146-.767.709.181,1-.948-.471-.948.471.181-1-.767-.709Zm-3.007,17.385h-1.894v-8.7l-1.861.785v-2.07l3.581-1.787h.174Zm4.229,5.859-.475.91-.475-.91-1.06-.146.767-.709-.181-1,.948.472.948-.472-.181,1,.767.709Zm2.055-6.91a2.552,2.552,0,0,1-.9.913,2.269,2.269,0,0,1-1.15.3,2.3,2.3,0,0,1-1.158-.3,2.547,2.547,0,0,1-.9-.913,5.13,5.13,0,0,1-.585-1.548,10.18,10.18,0,0,1-.211-2.212v-2.151a10.28,10.28,0,0,1,.208-2.207,5.049,5.049,0,0,1,.582-1.552,2.567,2.567,0,0,1,.9-.915,2.374,2.374,0,0,1,2.306,0,2.554,2.554,0,0,1,.9.915,5.118,5.118,0,0,1,.585,1.552,10.18,10.18,0,0,1,.211,2.207v2.151a10.28,10.28,0,0,1-.208,2.212A5.1,5.1,0,0,1,128.315,123.442Zm4.236,8.068-.859,1.646-.86-1.646-1.92-.264,1.389-1.283-.328-1.81,1.719.855,1.717-.855-.328,1.81,1.389,1.283Zm3.2-11.829a10.376,10.376,0,0,1-.207,2.212,5.1,5.1,0,0,1-.584,1.548,2.541,2.541,0,0,1-.9.913,2.264,2.264,0,0,1-1.148.3,2.292,2.292,0,0,1-1.158-.3,2.536,2.536,0,0,1-.9-.913,5.1,5.1,0,0,1-.585-1.548,10.18,10.18,0,0,1-.211-2.212v-2.151a10.376,10.376,0,0,1,.207-2.207,5.083,5.083,0,0,1,.584-1.552,2.567,2.567,0,0,1,.9-.915,2.374,2.374,0,0,1,2.306,0,2.551,2.551,0,0,1,.9.915,5.117,5.117,0,0,1,.586,1.552,10.188,10.188,0,0,1,.21,2.207Zm1.4-12.573.475-.91.475.91,1.06.146-.767.709.181,1-.948-.471-.948.471.181-1-.767-.709Zm1.222,23.244-.475.91-.475-.91-1.06-.146.767-.709-.181-1,.948.472.948-.472-.181,1,.767.709Zm.578-7.379,3.986-9.2.88.638-3.986,9.2Zm6.1.2a2.38,2.38,0,0,1-.336.768,1.715,1.715,0,0,1-.563.522,1.732,1.732,0,0,1-1.595,0,1.755,1.755,0,0,1-.572-.522,2.333,2.333,0,0,1-.344-.768,3.681,3.681,0,0,1-.116-.943v-.622a3.691,3.691,0,0,1,.116-.938,2.4,2.4,0,0,1,.342-.773,1.7,1.7,0,0,1,.569-.52,1.564,1.564,0,0,1,.791-.195,1.605,1.605,0,0,1,.8.195,1.677,1.677,0,0,1,.569.52,2.4,2.4,0,0,1,.336.773,3.818,3.818,0,0,1,.113.938v.622A3.807,3.807,0,0,1,145.047,123.172Zm-1.252-2.233a.617.617,0,0,0-.192-.21.5.5,0,0,0-.532,0,.613.613,0,0,0-.191.21,1.033,1.033,0,0,0-.112.308,1.734,1.734,0,0,0-.037.359v.622a1.377,1.377,0,0,0,.048.361,1.124,1.124,0,0,0,.132.307.691.691,0,0,0,.2.21.417.417,0,0,0,.241.077.557.557,0,0,0,.309-.077.5.5,0,0,0,.181-.21.908.908,0,0,0,.084-.307,3.088,3.088,0,0,0,.02-.361v-.622a1.733,1.733,0,0,0-.037-.359A1.071,1.071,0,0,0,143.8,120.939Zm-4.788-4.674a.6.6,0,0,0,.192.21.471.471,0,0,0,.271.077.455.455,0,0,0,.264-.077.57.57,0,0,0,.182-.21,1.2,1.2,0,0,0,.106-.3,1.682,1.682,0,0,0,.037-.357v-.622a1.772,1.772,0,0,0-.037-.367,1.157,1.157,0,0,0-.109-.308.593.593,0,0,0-.188-.21.47.47,0,0,0-.267-.077.455.455,0,0,0-.264.077.634.634,0,0,0-.188.21,1.07,1.07,0,0,0-.112.308,1.773,1.773,0,0,0-.037.367v.622a1.683,1.683,0,0,0,.037.357A1.064,1.064,0,0,0,139.007,116.266Zm-5.4-1.047a.98.98,0,0,0-.3-.429.688.688,0,0,0-.8,0,.965.965,0,0,0-.3.429,3.279,3.279,0,0,0-.185.781,9.015,9.015,0,0,0-.065,1.185v2.829a9.274,9.274,0,0,0,.065,1.206,3.059,3.059,0,0,0,.188.779.961.961,0,0,0,.3.425.674.674,0,0,0,.4.129.649.649,0,0,0,.395-.129.981.981,0,0,0,.3-.425,3.18,3.18,0,0,0,.188-.779,9.556,9.556,0,0,0,.064-1.206v-2.829A8.759,8.759,0,0,0,133.8,116,3.321,3.321,0,0,0,133.607,115.218Zm-6.648,0a.98.98,0,0,0-.3-.429.664.664,0,0,0-.4-.129.671.671,0,0,0-.4.129.965.965,0,0,0-.3.429,3.347,3.347,0,0,0-.185.781,9.043,9.043,0,0,0-.064,1.185v2.829a9.3,9.3,0,0,0,.064,1.206,3.179,3.179,0,0,0,.188.779.972.972,0,0,0,.3.425.674.674,0,0,0,.4.129.656.656,0,0,0,.4-.129.991.991,0,0,0,.3-.425,3.178,3.178,0,0,0,.188-.779,9.556,9.556,0,0,0,.064-1.206v-2.829a8.759,8.759,0,0,0-.067-1.185A3.319,3.319,0,0,0,126.958,115.218Zm13.064-.6a1.157,1.157,0,0,0-.109-.308.593.593,0,0,0-.188-.21.47.47,0,0,0-.267-.077.455.455,0,0,0-.264.077.634.634,0,0,0-.188.21,1.07,1.07,0,0,0-.112.308,1.773,1.773,0,0,0-.037.367v.622a1.683,1.683,0,0,0,.037.357,1.064,1.064,0,0,0,.112.3.6.6,0,0,0,.192.21.471.471,0,0,0,.271.077.455.455,0,0,0,.264-.077.57.57,0,0,0,.182-.21,1.2,1.2,0,0,0,.106-.3,1.682,1.682,0,0,0,.037-.357v-.622A1.772,1.772,0,0,0,140.022,114.617ZM127.149,116a3.319,3.319,0,0,0-.19-.781.98.98,0,0,0-.3-.429.664.664,0,0,0-.4-.129.671.671,0,0,0-.4.129.965.965,0,0,0-.3.429,3.347,3.347,0,0,0-.185.781,9.043,9.043,0,0,0-.064,1.185v2.829a9.3,9.3,0,0,0,.064,1.206,3.179,3.179,0,0,0,.188.779.972.972,0,0,0,.3.425.674.674,0,0,0,.4.129.656.656,0,0,0,.4-.129.991.991,0,0,0,.3-.425,3.178,3.178,0,0,0,.188-.779,9.556,9.556,0,0,0,.064-1.206v-2.829A8.759,8.759,0,0,0,127.149,116Zm6.648,0a3.321,3.321,0,0,0-.19-.781.98.98,0,0,0-.3-.429.688.688,0,0,0-.8,0,.965.965,0,0,0-.3.429,3.279,3.279,0,0,0-.185.781,9.015,9.015,0,0,0-.065,1.185v2.829a9.274,9.274,0,0,0,.065,1.206,3.059,3.059,0,0,0,.188.779.961.961,0,0,0,.3.425.674.674,0,0,0,.4.129.649.649,0,0,0,.395-.129.981.981,0,0,0,.3-.425,3.18,3.18,0,0,0,.188-.779,9.556,9.556,0,0,0,.064-1.206v-2.829A8.759,8.759,0,0,0,133.8,116Zm10.11,5.248a1.071,1.071,0,0,0-.112-.308.617.617,0,0,0-.192-.21.5.5,0,0,0-.532,0,.613.613,0,0,0-.191.21,1.033,1.033,0,0,0-.112.308,1.734,1.734,0,0,0-.037.359v.622a1.377,1.377,0,0,0,.048.361,1.124,1.124,0,0,0,.132.307.691.691,0,0,0,.2.21.417.417,0,0,0,.241.077.557.557,0,0,0,.309-.077.5.5,0,0,0,.181-.21.908.908,0,0,0,.084-.307,3.088,3.088,0,0,0,.02-.361v-.622A1.733,1.733,0,0,0,143.907,121.247Zm0,0a1.071,1.071,0,0,0-.112-.308.617.617,0,0,0-.192-.21.5.5,0,0,0-.532,0,.613.613,0,0,0-.191.21,1.033,1.033,0,0,0-.112.308,1.734,1.734,0,0,0-.037.359v.622a1.377,1.377,0,0,0,.048.361,1.124,1.124,0,0,0,.132.307.691.691,0,0,0,.2.21.417.417,0,0,0,.241.077.557.557,0,0,0,.309-.077.5.5,0,0,0,.181-.21.908.908,0,0,0,.084-.307,3.088,3.088,0,0,0,.02-.361v-.622A1.733,1.733,0,0,0,143.907,121.247Zm-3.885-6.631a1.157,1.157,0,0,0-.109-.308.593.593,0,0,0-.188-.21.47.47,0,0,0-.267-.077.455.455,0,0,0-.264.077.634.634,0,0,0-.188.21,1.07,1.07,0,0,0-.112.308,1.773,1.773,0,0,0-.037.367v.622a1.683,1.683,0,0,0,.037.357,1.064,1.064,0,0,0,.112.3.6.6,0,0,0,.192.21.471.471,0,0,0,.271.077.455.455,0,0,0,.264-.077.57.57,0,0,0,.182-.21,1.2,1.2,0,0,0,.106-.3,1.682,1.682,0,0,0,.037-.357v-.622A1.772,1.772,0,0,0,140.022,114.617ZM133.8,116a3.321,3.321,0,0,0-.19-.781.98.98,0,0,0-.3-.429.688.688,0,0,0-.8,0,.965.965,0,0,0-.3.429,3.279,3.279,0,0,0-.185.781,9.015,9.015,0,0,0-.065,1.185v2.829a9.274,9.274,0,0,0,.065,1.206,3.059,3.059,0,0,0,.188.779.961.961,0,0,0,.3.425.674.674,0,0,0,.4.129.649.649,0,0,0,.395-.129.981.981,0,0,0,.3-.425,3.18,3.18,0,0,0,.188-.779,9.556,9.556,0,0,0,.064-1.206v-2.829A8.759,8.759,0,0,0,133.8,116Zm-6.648,0a3.319,3.319,0,0,0-.19-.781.98.98,0,0,0-.3-.429.664.664,0,0,0-.4-.129.671.671,0,0,0-.4.129.965.965,0,0,0-.3.429,3.347,3.347,0,0,0-.185.781,9.043,9.043,0,0,0-.064,1.185v2.829a9.3,9.3,0,0,0,.064,1.206,3.179,3.179,0,0,0,.188.779.972.972,0,0,0,.3.425.674.674,0,0,0,.4.129.656.656,0,0,0,.4-.129.991.991,0,0,0,.3-.425,3.178,3.178,0,0,0,.188-.779,9.556,9.556,0,0,0,.064-1.206v-2.829A8.759,8.759,0,0,0,127.149,116Zm12.874-1.382a1.157,1.157,0,0,0-.109-.308.593.593,0,0,0-.188-.21.47.47,0,0,0-.267-.077.455.455,0,0,0-.264.077.634.634,0,0,0-.188.21,1.07,1.07,0,0,0-.112.308,1.773,1.773,0,0,0-.037.367v.622a1.683,1.683,0,0,0,.037.357,1.064,1.064,0,0,0,.112.3.6.6,0,0,0,.192.21.471.471,0,0,0,.271.077.455.455,0,0,0,.264-.077.57.57,0,0,0,.182-.21,1.2,1.2,0,0,0,.106-.3,1.682,1.682,0,0,0,.037-.357v-.622A1.772,1.772,0,0,0,140.022,114.617ZM127.149,116a3.319,3.319,0,0,0-.19-.781.98.98,0,0,0-.3-.429.664.664,0,0,0-.4-.129.671.671,0,0,0-.4.129.965.965,0,0,0-.3.429,3.347,3.347,0,0,0-.185.781,9.043,9.043,0,0,0-.064,1.185v2.829a9.3,9.3,0,0,0,.064,1.206,3.179,3.179,0,0,0,.188.779.972.972,0,0,0,.3.425.674.674,0,0,0,.4.129.656.656,0,0,0,.4-.129.991.991,0,0,0,.3-.425,3.178,3.178,0,0,0,.188-.779,9.556,9.556,0,0,0,.064-1.206v-2.829A8.759,8.759,0,0,0,127.149,116Zm6.648,0a3.321,3.321,0,0,0-.19-.781.98.98,0,0,0-.3-.429.688.688,0,0,0-.8,0,.965.965,0,0,0-.3.429,3.279,3.279,0,0,0-.185.781,9.015,9.015,0,0,0-.065,1.185v2.829a9.274,9.274,0,0,0,.065,1.206,3.059,3.059,0,0,0,.188.779.961.961,0,0,0,.3.425.674.674,0,0,0,.4.129.649.649,0,0,0,.395-.129.981.981,0,0,0,.3-.425,3.18,3.18,0,0,0,.188-.779,9.556,9.556,0,0,0,.064-1.206v-2.829A8.759,8.759,0,0,0,133.8,116Zm10.11,5.248a1.071,1.071,0,0,0-.112-.308.617.617,0,0,0-.192-.21.5.5,0,0,0-.532,0,.613.613,0,0,0-.191.21,1.033,1.033,0,0,0-.112.308,1.734,1.734,0,0,0-.037.359v.622a1.377,1.377,0,0,0,.048.361,1.124,1.124,0,0,0,.132.307.691.691,0,0,0,.2.21.417.417,0,0,0,.241.077.557.557,0,0,0,.309-.077.5.5,0,0,0,.181-.21.908.908,0,0,0,.084-.307,3.088,3.088,0,0,0,.02-.361v-.622A1.733,1.733,0,0,0,143.907,121.247Zm0,0a1.071,1.071,0,0,0-.112-.308.617.617,0,0,0-.192-.21.5.5,0,0,0-.532,0,.613.613,0,0,0-.191.21,1.033,1.033,0,0,0-.112.308,1.734,1.734,0,0,0-.037.359v.622a1.377,1.377,0,0,0,.048.361,1.124,1.124,0,0,0,.132.307.691.691,0,0,0,.2.21.417.417,0,0,0,.241.077.557.557,0,0,0,.309-.077.5.5,0,0,0,.181-.21.908.908,0,0,0,.084-.307,3.088,3.088,0,0,0,.02-.361v-.622A1.733,1.733,0,0,0,143.907,121.247Zm-3.885-6.631a1.157,1.157,0,0,0-.109-.308.593.593,0,0,0-.188-.21.47.47,0,0,0-.267-.077.455.455,0,0,0-.264.077.634.634,0,0,0-.188.21,1.07,1.07,0,0,0-.112.308,1.773,1.773,0,0,0-.037.367v.622a1.683,1.683,0,0,0,.037.357,1.064,1.064,0,0,0,.112.3.6.6,0,0,0,.192.21.471.471,0,0,0,.271.077.455.455,0,0,0,.264-.077.57.57,0,0,0,.182-.21,1.2,1.2,0,0,0,.106-.3,1.682,1.682,0,0,0,.037-.357v-.622A1.772,1.772,0,0,0,140.022,114.617ZM133.8,116a3.321,3.321,0,0,0-.19-.781.98.98,0,0,0-.3-.429.688.688,0,0,0-.8,0,.965.965,0,0,0-.3.429,3.279,3.279,0,0,0-.185.781,9.015,9.015,0,0,0-.065,1.185v2.829a9.274,9.274,0,0,0,.065,1.206,3.059,3.059,0,0,0,.188.779.961.961,0,0,0,.3.425.674.674,0,0,0,.4.129.649.649,0,0,0,.395-.129.981.981,0,0,0,.3-.425,3.18,3.18,0,0,0,.188-.779,9.556,9.556,0,0,0,.064-1.206v-2.829A8.759,8.759,0,0,0,133.8,116Zm-6.648,0a3.319,3.319,0,0,0-.19-.781.98.98,0,0,0-.3-.429.664.664,0,0,0-.4-.129.671.671,0,0,0-.4.129.965.965,0,0,0-.3.429,3.347,3.347,0,0,0-.185.781,9.043,9.043,0,0,0-.064,1.185v2.829a9.3,9.3,0,0,0,.064,1.206,3.179,3.179,0,0,0,.188.779.972.972,0,0,0,.3.425.674.674,0,0,0,.4.129.656.656,0,0,0,.4-.129.991.991,0,0,0,.3-.425,3.178,3.178,0,0,0,.188-.779,9.556,9.556,0,0,0,.064-1.206v-2.829A8.759,8.759,0,0,0,127.149,116Zm0,0a3.319,3.319,0,0,0-.19-.781.98.98,0,0,0-.3-.429.664.664,0,0,0-.4-.129.671.671,0,0,0-.4.129.965.965,0,0,0-.3.429,3.347,3.347,0,0,0-.185.781,9.043,9.043,0,0,0-.064,1.185v2.829a9.3,9.3,0,0,0,.064,1.206,3.179,3.179,0,0,0,.188.779.972.972,0,0,0,.3.425.674.674,0,0,0,.4.129.656.656,0,0,0,.4-.129.991.991,0,0,0,.3-.425,3.178,3.178,0,0,0,.188-.779,9.556,9.556,0,0,0,.064-1.206v-2.829A8.759,8.759,0,0,0,127.149,116Zm6.648,0a3.321,3.321,0,0,0-.19-.781.98.98,0,0,0-.3-.429.688.688,0,0,0-.8,0,.965.965,0,0,0-.3.429,3.279,3.279,0,0,0-.185.781,9.015,9.015,0,0,0-.065,1.185v2.829a9.274,9.274,0,0,0,.065,1.206,3.059,3.059,0,0,0,.188.779.961.961,0,0,0,.3.425.674.674,0,0,0,.4.129.649.649,0,0,0,.395-.129.981.981,0,0,0,.3-.425,3.18,3.18,0,0,0,.188-.779,9.556,9.556,0,0,0,.064-1.206v-2.829A8.759,8.759,0,0,0,133.8,116Zm6.225-1.382a1.157,1.157,0,0,0-.109-.308.593.593,0,0,0-.188-.21.47.47,0,0,0-.267-.077.455.455,0,0,0-.264.077.634.634,0,0,0-.188.21,1.07,1.07,0,0,0-.112.308,1.773,1.773,0,0,0-.037.367v.622a1.683,1.683,0,0,0,.037.357,1.064,1.064,0,0,0,.112.3.6.6,0,0,0,.192.21.471.471,0,0,0,.271.077.455.455,0,0,0,.264-.077.57.57,0,0,0,.182-.21,1.2,1.2,0,0,0,.106-.3,1.682,1.682,0,0,0,.037-.357v-.622A1.772,1.772,0,0,0,140.022,114.617Zm3.885,6.631a1.071,1.071,0,0,0-.112-.308.617.617,0,0,0-.192-.21.5.5,0,0,0-.532,0,.613.613,0,0,0-.191.21,1.033,1.033,0,0,0-.112.308,1.734,1.734,0,0,0-.037.359v.622a1.377,1.377,0,0,0,.048.361,1.124,1.124,0,0,0,.132.307.691.691,0,0,0,.2.21.417.417,0,0,0,.241.077.557.557,0,0,0,.309-.077.5.5,0,0,0,.181-.21.908.908,0,0,0,.084-.307,3.088,3.088,0,0,0,.02-.361v-.622A1.733,1.733,0,0,0,143.907,121.247Zm0,0a1.071,1.071,0,0,0-.112-.308.617.617,0,0,0-.192-.21.5.5,0,0,0-.532,0,.613.613,0,0,0-.191.21,1.033,1.033,0,0,0-.112.308,1.734,1.734,0,0,0-.037.359v.622a1.377,1.377,0,0,0,.048.361,1.124,1.124,0,0,0,.132.307.691.691,0,0,0,.2.21.417.417,0,0,0,.241.077.557.557,0,0,0,.309-.077.5.5,0,0,0,.181-.21.908.908,0,0,0,.084-.307,3.088,3.088,0,0,0,.02-.361v-.622A1.733,1.733,0,0,0,143.907,121.247Zm-3.885-6.631a1.157,1.157,0,0,0-.109-.308.593.593,0,0,0-.188-.21.47.47,0,0,0-.267-.077.455.455,0,0,0-.264.077.634.634,0,0,0-.188.21,1.07,1.07,0,0,0-.112.308,1.773,1.773,0,0,0-.037.367v.622a1.683,1.683,0,0,0,.037.357,1.064,1.064,0,0,0,.112.3.6.6,0,0,0,.192.21.471.471,0,0,0,.271.077.455.455,0,0,0,.264-.077.57.57,0,0,0,.182-.21,1.2,1.2,0,0,0,.106-.3,1.682,1.682,0,0,0,.037-.357v-.622A1.772,1.772,0,0,0,140.022,114.617ZM133.8,116a3.321,3.321,0,0,0-.19-.781.98.98,0,0,0-.3-.429.688.688,0,0,0-.8,0,.965.965,0,0,0-.3.429,3.279,3.279,0,0,0-.185.781,9.015,9.015,0,0,0-.065,1.185v2.829a9.274,9.274,0,0,0,.065,1.206,3.059,3.059,0,0,0,.188.779.961.961,0,0,0,.3.425.674.674,0,0,0,.4.129.649.649,0,0,0,.395-.129.981.981,0,0,0,.3-.425,3.18,3.18,0,0,0,.188-.779,9.556,9.556,0,0,0,.064-1.206v-2.829A8.759,8.759,0,0,0,133.8,116Zm-6.648,0a3.319,3.319,0,0,0-.19-.781.98.98,0,0,0-.3-.429.664.664,0,0,0-.4-.129.671.671,0,0,0-.4.129.965.965,0,0,0-.3.429,3.347,3.347,0,0,0-.185.781,9.043,9.043,0,0,0-.064,1.185v2.829a9.3,9.3,0,0,0,.064,1.206,3.179,3.179,0,0,0,.188.779.972.972,0,0,0,.3.425.674.674,0,0,0,.4.129.656.656,0,0,0,.4-.129.991.991,0,0,0,.3-.425,3.178,3.178,0,0,0,.188-.779,9.556,9.556,0,0,0,.064-1.206v-2.829A8.759,8.759,0,0,0,127.149,116Zm0,0a3.319,3.319,0,0,0-.19-.781.98.98,0,0,0-.3-.429.664.664,0,0,0-.4-.129.671.671,0,0,0-.4.129.965.965,0,0,0-.3.429,3.347,3.347,0,0,0-.185.781,9.043,9.043,0,0,0-.064,1.185v2.829a9.3,9.3,0,0,0,.064,1.206,3.179,3.179,0,0,0,.188.779.972.972,0,0,0,.3.425.674.674,0,0,0,.4.129.656.656,0,0,0,.4-.129.991.991,0,0,0,.3-.425,3.178,3.178,0,0,0,.188-.779,9.556,9.556,0,0,0,.064-1.206v-2.829A8.759,8.759,0,0,0,127.149,116Zm6.648,0a3.321,3.321,0,0,0-.19-.781.98.98,0,0,0-.3-.429.688.688,0,0,0-.8,0,.965.965,0,0,0-.3.429,3.279,3.279,0,0,0-.185.781,9.015,9.015,0,0,0-.065,1.185v2.829a9.274,9.274,0,0,0,.065,1.206,3.059,3.059,0,0,0,.188.779.961.961,0,0,0,.3.425.674.674,0,0,0,.4.129.649.649,0,0,0,.395-.129.981.981,0,0,0,.3-.425,3.18,3.18,0,0,0,.188-.779,9.556,9.556,0,0,0,.064-1.206v-2.829A8.759,8.759,0,0,0,133.8,116Zm6.225-1.382a1.157,1.157,0,0,0-.109-.308.593.593,0,0,0-.188-.21.47.47,0,0,0-.267-.077.455.455,0,0,0-.264.077.634.634,0,0,0-.188.21,1.07,1.07,0,0,0-.112.308,1.773,1.773,0,0,0-.037.367v.622a1.683,1.683,0,0,0,.037.357,1.064,1.064,0,0,0,.112.3.6.6,0,0,0,.192.21.471.471,0,0,0,.271.077.455.455,0,0,0,.264-.077.57.57,0,0,0,.182-.21,1.2,1.2,0,0,0,.106-.3,1.682,1.682,0,0,0,.037-.357v-.622A1.772,1.772,0,0,0,140.022,114.617Zm0,0a1.157,1.157,0,0,0-.109-.308.593.593,0,0,0-.188-.21.47.47,0,0,0-.267-.077.455.455,0,0,0-.264.077.634.634,0,0,0-.188.21,1.07,1.07,0,0,0-.112.308,1.773,1.773,0,0,0-.037.367v.622a1.683,1.683,0,0,0,.037.357,1.064,1.064,0,0,0,.112.3.6.6,0,0,0,.192.21.471.471,0,0,0,.271.077.455.455,0,0,0,.264-.077.57.57,0,0,0,.182-.21,1.2,1.2,0,0,0,.106-.3,1.682,1.682,0,0,0,.037-.357v-.622A1.772,1.772,0,0,0,140.022,114.617ZM133.8,116a3.321,3.321,0,0,0-.19-.781.98.98,0,0,0-.3-.429.688.688,0,0,0-.8,0,.965.965,0,0,0-.3.429,3.279,3.279,0,0,0-.185.781,9.015,9.015,0,0,0-.065,1.185v2.829a9.274,9.274,0,0,0,.065,1.206,3.059,3.059,0,0,0,.188.779.961.961,0,0,0,.3.425.674.674,0,0,0,.4.129.649.649,0,0,0,.395-.129.981.981,0,0,0,.3-.425,3.18,3.18,0,0,0,.188-.779,9.556,9.556,0,0,0,.064-1.206v-2.829A8.759,8.759,0,0,0,133.8,116Zm-6.648,0a3.319,3.319,0,0,0-.19-.781.98.98,0,0,0-.3-.429.664.664,0,0,0-.4-.129.671.671,0,0,0-.4.129.965.965,0,0,0-.3.429,3.347,3.347,0,0,0-.185.781,9.043,9.043,0,0,0-.064,1.185v2.829a9.3,9.3,0,0,0,.064,1.206,3.179,3.179,0,0,0,.188.779.972.972,0,0,0,.3.425.674.674,0,0,0,.4.129.656.656,0,0,0,.4-.129.991.991,0,0,0,.3-.425,3.178,3.178,0,0,0,.188-.779,9.556,9.556,0,0,0,.064-1.206v-2.829A8.759,8.759,0,0,0,127.149,116Zm0,0a3.319,3.319,0,0,0-.19-.781.98.98,0,0,0-.3-.429.664.664,0,0,0-.4-.129.671.671,0,0,0-.4.129.965.965,0,0,0-.3.429,3.347,3.347,0,0,0-.185.781,9.043,9.043,0,0,0-.064,1.185v2.829a9.3,9.3,0,0,0,.064,1.206,3.179,3.179,0,0,0,.188.779.972.972,0,0,0,.3.425.674.674,0,0,0,.4.129.656.656,0,0,0,.4-.129.991.991,0,0,0,.3-.425,3.178,3.178,0,0,0,.188-.779,9.556,9.556,0,0,0,.064-1.206v-2.829A8.759,8.759,0,0,0,127.149,116Zm0,0a3.319,3.319,0,0,0-.19-.781.98.98,0,0,0-.3-.429.664.664,0,0,0-.4-.129.671.671,0,0,0-.4.129.965.965,0,0,0-.3.429,3.347,3.347,0,0,0-.185.781,9.043,9.043,0,0,0-.064,1.185v2.829a9.3,9.3,0,0,0,.064,1.206,3.179,3.179,0,0,0,.188.779.972.972,0,0,0,.3.425.674.674,0,0,0,.4.129.656.656,0,0,0,.4-.129.991.991,0,0,0,.3-.425,3.178,3.178,0,0,0,.188-.779,9.556,9.556,0,0,0,.064-1.206v-2.829A8.759,8.759,0,0,0,127.149,116Z" transform="translate(-96.173 -85.634)" fill="#414042"/>
      <g id="Group_1562" data-name="Group 1562" transform="translate(16.716 10.448)">
        <g id="Group_1561" data-name="Group 1561">
          <path id="Path_4126" data-name="Path 4126" d="M111.532,102.322a24.1,24.1,0,0,1,2.617.746,23.765,23.765,0,0,1-1.052-2.388c.465-.441.7-.651,1.193-1.054l2.348,2.576c-.315.259-.469.393-.772.67l-.582-.573c-.446-.5-.667-.746-1.108-1.248a22.4,22.4,0,0,0,1.019,2.466c-.192.194-.286.293-.472.5a22.693,22.693,0,0,0-2.705-.7c.571.365.856.55,1.423.921l.658.492c-.269.323-.4.489-.653.831l-2.939-1.955C110.9,103.072,111.107,102.816,111.532,102.322Z" transform="translate(-110.507 -94.35)" fill="#414042"/>
          <path id="Path_4127" data-name="Path 4127" d="M126.147,95.623a1.713,1.713,0,0,1,.227.681,1.537,1.537,0,0,1-.069.642,1.723,1.723,0,0,1-.325.57,2.383,2.383,0,0,1-.557.475,2.586,2.586,0,0,1-.687.313,1.994,1.994,0,0,1-.689.073,1.787,1.787,0,0,1-.659-.18,1.822,1.822,0,0,1-.581-.456l-.092-.107a1.569,1.569,0,0,1-.348-.636,1.341,1.341,0,0,1,0-.675,1.779,1.779,0,0,1,.341-.66,2.627,2.627,0,0,1,.659-.578,2.7,2.7,0,0,1,.805-.35,1.966,1.966,0,0,1,.766-.041,1.555,1.555,0,0,1,.653.259,1.626,1.626,0,0,1,.487.548Zm-1.049.4a1.181,1.181,0,0,0-.626-.54.868.868,0,0,0-.729.133.787.787,0,0,0-.419.594,1.127,1.127,0,0,0,.293.75l.089.115a1.328,1.328,0,0,0,.654.5.811.811,0,0,0,.686-.122.716.716,0,0,0,.368-.544,1.211,1.211,0,0,0-.238-.766Z" transform="translate(-117.353 -91.481)" fill="#414042"/>
          <path id="Path_4128" data-name="Path 4128" d="M135.429,92.461c-.378.106-.566.163-.94.287a17.725,17.725,0,0,0-2.267-1.428l.9,1.937c-.366.152-.548.233-.907.4l-1.62-3.039c.425-.2.64-.3,1.074-.479a18.5,18.5,0,0,1,2.359,1.393l-.747-2c.443-.148.667-.216,1.116-.342Z" transform="translate(-122.148 -88.31)" fill="#414042"/>
          <path id="Path_4129" data-name="Path 4129" d="M144.558,89.368c-.664.079-.995.131-1.651.259l.176.794a17.789,17.789,0,0,1,1.872-.281l.074.627a17.16,17.16,0,0,0-2.774.485l-.914-3.29a20.323,20.323,0,0,1,3.293-.575l.075.629a19.812,19.812,0,0,0-2.09.313l.155.7c.677-.133,1.018-.186,1.7-.267Z" transform="translate(-128.371 -87.259)" fill="#414042"/>
          <path id="Path_4130" data-name="Path 4130" d="M151.558,88.555c.323-.595.5-.89.869-1.472.5.012.756.024,1.259.061a18.748,18.748,0,0,0-1.585,2.113c-.006.489-.009.733-.015,1.222-.4,0-.6,0-1,.013-.021-.488-.031-.732-.052-1.221a18.819,18.819,0,0,0-1.645-2.07c.5-.05.749-.069,1.25-.094C151.032,87.679,151.215,87.969,151.558,88.555Z" transform="translate(-133.034 -87.083)" fill="#414042"/>
          <path id="Path_4131" data-name="Path 4131" d="M163.009,91.145l.6-3.353c.688.109,1.03.176,1.709.335a4.163,4.163,0,0,1,.764.251,1.969,1.969,0,0,1,.522.329.873.873,0,0,1,.259.387.673.673,0,0,1-.02.431.767.767,0,0,1-.11.2.681.681,0,0,1-.175.16.847.847,0,0,1-.245.105,1.234,1.234,0,0,1-.321.036,1.1,1.1,0,0,1,.288.205.727.727,0,0,1,.155.23.586.586,0,0,1,.045.238.719.719,0,0,1-.044.229.9.9,0,0,1-.636.6,2.464,2.464,0,0,1-1.192-.063C163.975,91.311,163.654,91.247,163.009,91.145Zm1.426-1.758c.223.046.334.071.556.123a1.093,1.093,0,0,0,.523.028.328.328,0,0,0,.23-.233.314.314,0,0,0-.076-.341,1.12,1.12,0,0,0-.511-.223c-.217-.051-.325-.075-.543-.12Zm-.123.525-.187.8c.262.055.392.084.652.147a1.052,1.052,0,0,0,.264.034.55.55,0,0,0,.2-.035.348.348,0,0,0,.133-.092.371.371,0,0,0,.076-.137.5.5,0,0,0,.023-.178.3.3,0,0,0-.054-.154.444.444,0,0,0-.143-.126.9.9,0,0,0-.242-.092C164.743,90,164.6,89.971,164.311,89.911Z" transform="translate(-140.924 -87.493)" fill="#414042"/>
          <path id="Path_4132" data-name="Path 4132" d="M173.608,94.593c-.506-.25-.763-.365-1.283-.579-.2.2-.3.295-.488.494-.394-.156-.592-.229-.993-.364a24.649,24.649,0,0,1,2.881-2.571c.407.172.609.263,1.008.455a23.043,23.043,0,0,1-.28,3.748c-.371-.216-.559-.318-.941-.512C173.553,95,173.573,94.863,173.608,94.593Zm-.781-1.062c.348.148.521.226.862.389.054-.5.076-.756.107-1.265C173.4,93,173.2,93.174,172.826,93.531Z" transform="translate(-145.463 -89.685)" fill="#414042"/>
          <path id="Path_4133" data-name="Path 4133" d="M184.148,99.776a1.165,1.165,0,0,1-.459.263,1.4,1.4,0,0,1-.542.05,2.076,2.076,0,0,1-.592-.153,3.03,3.03,0,0,1-.619-.352,2.452,2.452,0,0,1-.543-.517,1.586,1.586,0,0,1-.278-.575,1.413,1.413,0,0,1-.007-.624,1.873,1.873,0,0,1,.279-.65l.1-.157a1.715,1.715,0,0,1,.506-.515,1.484,1.484,0,0,1,.646-.227,1.862,1.862,0,0,1,.741.077,2.628,2.628,0,0,1,.776.393,3.009,3.009,0,0,1,.626.587,1.825,1.825,0,0,1,.317.59,1.151,1.151,0,0,1,.034.548,1.135,1.135,0,0,1-.214.476c-.344-.3-.519-.444-.876-.723a.721.721,0,0,0,.127-.228.4.4,0,0,0,0-.233.674.674,0,0,0-.136-.243,1.559,1.559,0,0,0-.291-.261,1.07,1.07,0,0,0-.34-.17.635.635,0,0,0-.326,0,.824.824,0,0,0-.319.171,1.963,1.963,0,0,0-.322.353l-.115.155a2.243,2.243,0,0,0-.245.4.81.81,0,0,0-.08.331.5.5,0,0,0,.086.28,1.26,1.26,0,0,0,.788.477.561.561,0,0,0,.445-.2C183.657,99.357,183.823,99.493,184.148,99.776Z" transform="translate(-151.391 -92.428)" fill="#414042"/>
          <path id="Path_4134" data-name="Path 4134" d="M189.315,104.141c-.241-.035-.361-.05-.6-.076l-.693.612c-.289-.3-.437-.438-.739-.715l2.491-2.453c.358.328.533.5.876.847l-1.159,1.023c.244,0,.367-.005.615,0,.622.019.938.04,1.576.109.4.467.591.708.963,1.209a16.71,16.71,0,0,0-2.321-.4,16.888,16.888,0,0,1-.618,2.36c-.3-.4-.456-.6-.778-.979C189.106,105.07,189.183,104.764,189.315,104.141Z" transform="translate(-154.988 -95.441)" fill="#414042"/>
        </g>
      </g>
      <g id="Group_1564" data-name="Group 1564" transform="translate(16.46 44.164)">
        <g id="Group_1563" data-name="Group 1563">
          <path id="Path_4135" data-name="Path 4135" d="M112.776,173.708a1.787,1.787,0,0,1-.355-.076,2.823,2.823,0,0,1-.482-.2,4.213,4.213,0,0,1-.577-.373,4.979,4.979,0,0,1-.636-.584,3.48,3.48,0,0,1-.612-.884,2.128,2.128,0,0,1-.216-.858,1.48,1.48,0,0,1,.186-.758,1.765,1.765,0,0,1,.585-.606l.186-.124a2.084,2.084,0,0,1,.795-.328,2.023,2.023,0,0,1,.785.013,2.325,2.325,0,0,1,.735.3,3.159,3.159,0,0,1,.662.554,3.883,3.883,0,0,1,.528.692,1.868,1.868,0,0,1,.232.612,1.223,1.223,0,0,1-.029.555,1.584,1.584,0,0,1-.257.5c-.358-.317-.533-.481-.875-.82a.974.974,0,0,0,.133-.238.533.533,0,0,0,.031-.244.7.7,0,0,0-.087-.262,1.479,1.479,0,0,0-.218-.292,1.135,1.135,0,0,0-.327-.25.892.892,0,0,0-.38-.094,1.153,1.153,0,0,0-.427.078,1.83,1.83,0,0,0-.467.265l-.182.138a1.178,1.178,0,0,0-.529.767,1.128,1.128,0,0,0,.381.873,2.3,2.3,0,0,0,.214.2,1.669,1.669,0,0,0,.188.137,1.043,1.043,0,0,0,.157.082.862.862,0,0,0,.121.04l.459-.416c-.261-.26-.389-.393-.641-.666l.509-.424a18,18,0,0,0,1.554,1.521Z" transform="translate(-109.898 -168.187)" fill="#414042"/>
          <path id="Path_4136" data-name="Path 4136" d="M123.985,177.556l-1.344,2.19a1.214,1.214,0,0,1-.454.445,1.33,1.33,0,0,1-.623.156,2.161,2.161,0,0,1-.751-.136,3.648,3.648,0,0,1-.824-.426,3.585,3.585,0,0,1-.695-.6,2.018,2.018,0,0,1-.39-.639,1.192,1.192,0,0,1-.058-.619,1.114,1.114,0,0,1,.292-.557l1.753-1.912c.359.3.542.439.916.713l-1.632,2.006a.582.582,0,0,0-.158.539.955.955,0,0,0,.413.487,1.011,1.011,0,0,0,.619.213.65.65,0,0,0,.481-.32L123,176.979C123.39,177.222,123.587,177.337,123.985,177.556Z" transform="translate(-115.072 -171.997)" fill="#414042"/>
          <path id="Path_4137" data-name="Path 4137" d="M130.48,185.952c-.678-.241-1.014-.375-1.674-.667-.245.211-.37.316-.622.522-.529-.242-.79-.371-1.3-.646a42.272,42.272,0,0,0,3.563-2.634c.391.167.588.246.986.393a39.439,39.439,0,0,0,.48,4.246c-.56-.156-.838-.242-1.389-.43C130.5,186.423,130.491,186.266,130.48,185.952Zm-1.07-1.2c.418.178.629.262,1.054.42-.005-.579,0-.868.023-1.442C130.068,184.148,129.852,184.353,129.41,184.754Z" transform="translate(-119.736 -176.094)" fill="#414042"/>
          <path id="Path_4138" data-name="Path 4138" d="M142.075,187.765c-.271-.048-.406-.073-.676-.128l-.309,1.336c-.53-.108-.793-.17-1.317-.306l1.1-3.734a17.779,17.779,0,0,0,1.794.386,3.79,3.79,0,0,1,.71.186,1.932,1.932,0,0,1,.527.29,1.092,1.092,0,0,1,.319.4.988.988,0,0,1,.077.515,1.173,1.173,0,0,1-.1.391.913.913,0,0,1-.211.288,1.136,1.136,0,0,1-.309.2,2.023,2.023,0,0,1-.391.124c.344.673.533,1.008.942,1.667l0,.04c-.577-.046-.865-.077-1.438-.155C142.477,188.667,142.335,188.367,142.075,187.765Zm-.513-.833c.3.062.457.091.764.143a.817.817,0,0,0,.543-.055.476.476,0,0,0,.235-.361.481.481,0,0,0-.108-.412.775.775,0,0,0-.469-.219c-.291-.049-.436-.077-.725-.136Z" transform="translate(-127.206 -177.487)" fill="#414042"/>
          <path id="Path_4139" data-name="Path 4139" d="M154.359,189.627c-.715.048-1.074.059-1.791.056-.127.289-.192.433-.327.72-.577-.01-.865-.023-1.441-.064a40.81,40.81,0,0,0,2.023-3.807c.422,0,.633-.009,1.055-.033a40.922,40.922,0,0,0,2.3,3.671c-.575.078-.864.109-1.442.155C154.583,190.047,154.507,189.907,154.359,189.627Zm-1.484-.666c.451,0,.677-.011,1.128-.035-.259-.524-.382-.788-.613-1.319C153.2,188.15,153.095,188.422,152.875,188.961Z" transform="translate(-133.595 -178.395)" fill="#414042"/>
          <path id="Path_4140" data-name="Path 4140" d="M168.19,187.409c-.509.177-.766.259-1.283.408a19.292,19.292,0,0,1-2.478-1.878l.548,2.355c-.529.109-.8.157-1.33.238l-.657-3.825c.444-.068.666-.107,1.106-.2a18.433,18.433,0,0,0,2.352,1.909l-.75-2.305c.431-.125.646-.193,1.07-.34Z" transform="translate(-140.657 -176.816)" fill="#414042"/>
          <path id="Path_4141" data-name="Path 4141" d="M176.774,180.026c-.5.306-.76.45-1.282.718l1.6,2.771c-.485.25-.731.368-1.228.59l-1.427-2.852c-.524.234-.79.342-1.327.54l-.278-.672a18.894,18.894,0,0,0,3.535-1.7Z" transform="translate(-146.356 -174.293)" fill="#414042"/>
          <path id="Path_4142" data-name="Path 4142" d="M186.165,175.919a18.4,18.4,0,0,1-1.586,1.265l.592.735a19.166,19.166,0,0,0,1.943-1.577l.523.521a21.921,21.921,0,0,1-3.143,2.4l-2.292-3.213a16.507,16.507,0,0,0,2.619-2l.525.523a17.089,17.089,0,0,1-1.736,1.409l.524.65a17.793,17.793,0,0,0,1.534-1.224Z" transform="translate(-151.787 -171.182)" fill="#414042"/>
          <path id="Path_4143" data-name="Path 4143" d="M193.191,168.83a18.519,18.519,0,0,1-1.356,1.6l.729.613a19.28,19.28,0,0,0,1.656-1.988l.621.413a21.951,21.951,0,0,1-2.7,3.057l-2.892-2.743a16.529,16.529,0,0,0,2.254-2.548l.623.415a17.194,17.194,0,0,1-1.48,1.777l.645.543a17.869,17.869,0,0,0,1.311-1.547Z" transform="translate(-155.867 -167.234)" fill="#414042"/>
        </g>
      </g>
      <path id="Path_4144" data-name="Path 4144" d="M98.589,135.2l.852,1.635,1.906.262-1.379,1.273.326,1.8-1.7-.848-1.7.848.326-1.8-1.379-1.273,1.906-.262Z" transform="translate(-85.289 -104.51)" fill="#414042"/>
      <path id="Path_4145" data-name="Path 4145" d="M204.474,135.2l.852,1.635,1.906.262-1.379,1.273.326,1.8-1.7-.848-1.7.848.326-1.8-1.379-1.273,1.906-.262Z" transform="translate(-146.632 -104.51)" fill="#414042"/>
    </g>
  </g>
</svg>
