<svg xmlns="http://www.w3.org/2000/svg" width="30.953" height="30.45" viewBox="0 0 30.953 30.45"><defs><style>.a{fill:#52c306;}.b{fill:#388f04;}.c{fill:#efce4a;}</style></defs><g transform="translate(0 -0.487)"><g transform="translate(0 3.108)"><path class="a" d="M27.555,27.4c-.979-1.851-4.591-3.967-4.591-3.967-.817-.466-1.8-.518-2.269.313a18.627,18.627,0,0,1-1.472,1.61,2.743,2.743,0,0,1-3.9-.387l-2.963-2.963L9.4,19.043a2.743,2.743,0,0,1-.387-3.9,18.627,18.627,0,0,1,1.61-1.472c.83-.466.778-1.452.313-2.269,0,0-2.117-3.612-3.967-4.591a2.029,2.029,0,0,0-2.384.359L3.271,8.477c-4.15,4.15-2.107,8.837,2.043,12.987l3.793,3.793L12.9,29.051c4.15,4.15,8.837,6.194,12.987,2.043L27.2,29.786A2.032,2.032,0,0,0,27.555,27.4Z" transform="translate(-0.483 -6.055)"/><path class="b" d="M20.458,33.4a7.379,7.379,0,0,1-1.663-.2,14.748,14.748,0,0,1-6.742-4.272L4.466,21.341C-.689,16.186-1.4,11.443,2.422,7.625L3.731,6.316a2.531,2.531,0,0,1,2.99-.45C8.68,6.9,10.8,10.5,10.892,10.652a2.551,2.551,0,0,1,.337,1.925,1.716,1.716,0,0,1-.8,1.03,17.1,17.1,0,0,0-1.48,1.339,2.232,2.232,0,0,0,.326,3.246L15.2,24.117a2.234,2.234,0,0,0,3.248.325,17.484,17.484,0,0,0,1.337-1.479,1.715,1.715,0,0,1,1.029-.8,2.541,2.541,0,0,1,1.92.333c.158.093,3.756,2.217,4.792,4.175h0a2.532,2.532,0,0,1-.45,2.99l-1.309,1.309A7.414,7.414,0,0,1,20.458,33.4ZM5.529,6.6a1.507,1.507,0,0,0-1.068.445L3.152,8.354C-.236,11.743.451,15.867,5.2,20.611L12.783,28.2c4.745,4.745,8.869,5.432,12.258,2.043l1.309-1.309a1.507,1.507,0,0,0,.268-1.778h0c-.747-1.412-3.427-3.2-4.4-3.764a1.591,1.591,0,0,0-1.127-.232.7.7,0,0,0-.431.353l-.054.078A15.251,15.251,0,0,1,19.03,25.3a3.255,3.255,0,0,1-4.556-.449L8.547,18.921A3.254,3.254,0,0,1,8.1,14.365,15.264,15.264,0,0,1,9.8,12.786l.077-.054a.7.7,0,0,0,.353-.431A1.586,1.586,0,0,0,10,11.168c-.017-.029-2.061-3.492-3.76-4.391A1.524,1.524,0,0,0,5.529,6.6Z" transform="translate(0 -5.567)"/></g><path class="b" d="M34.189,45.119l-.054,0a10.771,10.771,0,0,1-5.984-2.726.516.516,0,0,1,.724-.735,9.893,9.893,0,0,0,5.366,2.434.516.516,0,0,1-.053,1.029Z" transform="translate(-13.553 -19.858)"/><path class="b" d="M14.608,26.215a.513.513,0,0,1-.328-.118A9.853,9.853,0,0,1,11,20.077a.516.516,0,1,1,1.027-.107,8.957,8.957,0,0,0,2.911,5.33.516.516,0,0,1-.33.914Z" transform="translate(-5.323 -9.208)"/><g transform="translate(13.6 0.487)"><path class="c" d="M26.878.487a.516.516,0,0,0,0,1.032,15.823,15.823,0,0,1,15.8,15.8.516.516,0,1,0,1.032,0A16.856,16.856,0,0,0,26.878.487Z" transform="translate(-26.362 -0.487)"/><path class="c" d="M26.878,7.517a.516.516,0,1,0,0,1.032A12.191,12.191,0,0,1,39.055,20.726a.516.516,0,1,0,1.032,0A13.224,13.224,0,0,0,26.878,7.517Z" transform="translate(-26.362 -3.89)"/><path class="c" d="M26.878,14.547a.516.516,0,0,0,0,1.032,8.561,8.561,0,0,1,8.551,8.551.516.516,0,1,0,1.032,0A9.594,9.594,0,0,0,26.878,14.547Z" transform="translate(-26.362 -7.293)"/></g></g></svg>