<svg xmlns="http://www.w3.org/2000/svg" width="43.445" height="43.438" viewBox="0 0 43.445 43.438"><defs><style>.a{fill:#86c433;}.b{fill:#fff;}</style></defs><g transform="translate(-0.301 -0.061)"><path class="a" d="M39,40.037c-6.657,5.434-27.442,5.434-33.962,0C-1.614,34.6-.935,11.373,5.042,5.26S33.027-.853,39,5.26,45.661,34.6,39,40.037Z" transform="translate(0 -0.614)"/><path class="b" d="M115.843,104.384a2.435,2.435,0,0,1-2.445,2.445h-8.151v8.151a2.445,2.445,0,1,1-4.891,0V106.83H92.205a2.445,2.445,0,0,1,0-4.891h8.151V93.788a2.445,2.445,0,1,1,4.891,0v8.151H113.4A2.435,2.435,0,0,1,115.843,104.384Z" transform="translate(-80.914 -82.622)"/></g></svg>