<svg xmlns="http://www.w3.org/2000/svg" width="33.371" height="79.333" viewBox="0 0 33.371 79.333"><defs><style>.a{fill:#feac4f;}</style></defs><g transform="translate(-59.768)"><g transform="translate(59.768 0)"><path class="a" d="M76.877,45.356a103.39,103.39,0,0,0,1.3,11.519c.23,1.353.859,3.559.633,4.729a17.181,17.181,0,0,0-.239,4.973c.112.747.466,4.191-.04,5.45a39.737,39.737,0,0,0-.749,4.046c-1.263,3.189-.55,3.032-.55,3.032.391.48,1.061.038,1.061.038a.656.656,0,0,0,.864-.077.786.786,0,0,0,.949-.045.971.971,0,0,0,1.06-.241c.316.159.393-.042.393-.042.948-.061-.529-3.1-.529-3.1A8.287,8.287,0,0,1,81.38,71.4c2.309-6.846,2.426-8.663,1.5-11.243-.26-.745-.326-1.04-.206-1.363.276-.746.075-3.748.412-4.94a106.97,106.97,0,0,0,1.627-10.85c.449-3.664-1.592-8.578-1.592-8.578-.447-2,.208-9.123.208-9.123a8.637,8.637,0,0,1,.881,3.939c-.145,2.637,2.131,6.668,2.131,6.668a10.735,10.735,0,0,1,1.508,3.363c0,.48-.1,1.641-.1,1.641l.042,1.012a14.428,14.428,0,0,1,.14,1.573c-.171,2.638.248,2.142.248,2.142.354,0,.742-2.123.742-2.123a9.1,9.1,0,0,0,.161,2.8c.353.737.613-.127.618-.3.093-3.359.3-2.479.3-2.479.2,2.725.438,3.341.871,3.128.328-.156.028-3.271.028-3.271.562,1.85.988,2.144.988,2.144.927.651.354-1.147.225-1.5A10.22,10.22,0,0,1,91.4,41.5c.857,1.7,1.5,1.637,1.5,1.637.836-.267-.731-2.674-1.648-3.827A9.38,9.38,0,0,1,90,37.467a22.256,22.256,0,0,1-.5-3.335,10.024,10.024,0,0,0-.829-4.306c-1.269-2.031-1.508-5.819-1.508-5.819l-.056-6.4c-.445-4.363-3.66-4.395-3.66-4.395-3.249-.484-3.7-1.533-3.7-1.533a4.582,4.582,0,0,1-.295-2.889,3.453,3.453,0,0,0,.791-1.7c.948-.727.9-1.791.464-1.779-.351.009-.272-.282-.272-.282C81.031.245,76.779,0,76.779,0H76.13s-4.254.245-3.662,5.033c0,0,.08.291-.275.282-.437-.012-.478,1.052.467,1.779a3.45,3.45,0,0,0,.791,1.7,4.582,4.582,0,0,1-.295,2.889s-.451,1.05-3.7,1.533c0,0-3.22.032-3.658,4.395l-.061,6.4s-.234,3.789-1.508,5.819A10.059,10.059,0,0,0,63.4,34.13a22.4,22.4,0,0,1-.5,3.335,9.277,9.277,0,0,1-1.249,1.841c-.926,1.151-2.482,3.553-1.65,3.827,0,0,.649.063,1.5-1.637a10.12,10.12,0,0,1-.7,2.547c-.135.351-.707,2.149.22,1.5,0,0,.429-.295.988-2.144,0,0-.3,3.114.034,3.271.436.213.673-.4.87-3.128,0,0,.2-.88.295,2.479,0,.173.259,1.037.614.3a8.971,8.971,0,0,0,.165-2.8s.384,2.123.743,2.123c0,0,.423.5.249-2.142a13.278,13.278,0,0,1,.142-1.573l.041-1.012s-.105-1.159-.105-1.641a10.721,10.721,0,0,1,1.508-3.363s2.274-4.033,2.127-6.668a8.659,8.659,0,0,1,.884-3.939s.65,7.123.21,9.123c0,0-2.045,4.913-1.594,8.578a105.622,105.622,0,0,0,1.625,10.85c.341,1.19.139,4.191.412,4.94.123.326.058.626-.206,1.363-.918,2.58-.8,4.4,1.508,11.243a8.212,8.212,0,0,1,.351,4.242s-1.475,3.035-.53,3.1c0,0,.074.2.393.042a.972.972,0,0,0,1.062.241.784.784,0,0,0,.947.045.651.651,0,0,0,.86.077s.67.452,1.068-.038c0,0,.707.157-.552-3.032a39.549,39.549,0,0,0-.748-4.046c-.507-1.259-.149-4.711-.041-5.45a17.482,17.482,0,0,0-.238-4.973c-.233-1.168.4-3.374.631-4.729a104,104,0,0,0,1.3-11.519l.388.136A.786.786,0,0,0,76.877,45.356Z" transform="translate(-59.768 0)"/></g></g></svg>