<svg xmlns="http://www.w3.org/2000/svg" xmlns:xlink="http://www.w3.org/1999/xlink" width="263.246" height="41.303" viewBox="0 0 263.246 41.303"><defs><style>.a{fill:url(#a);}.b{fill:url(#b);}.c{fill:url(#c);}.d{fill:url(#d);}.e{fill:url(#e);}.f{fill:url(#f);}.g{fill:url(#g);}</style><linearGradient id="a" x1="0.463" y1="0.914" x2="0.463" y2="-0.169" gradientUnits="objectBoundingBox"><stop offset="0" stop-color="#ffcf95"/><stop offset="0.427" stop-color="#ffc954"/><stop offset="1" stop-color="#ffc200"/></linearGradient><linearGradient id="b" x1="1.217" y1="1.457" x2="-0.633" y2="1.457" gradientUnits="objectBoundingBox"><stop offset="0" stop-color="#ffc200" stop-opacity="0"/><stop offset="0.203" stop-color="#fb0" stop-opacity="0.204"/><stop offset="0.499" stop-color="#ffa700" stop-opacity="0.498"/><stop offset="0.852" stop-color="#f80" stop-opacity="0.851"/><stop offset="1" stop-color="#ff7800"/></linearGradient><linearGradient id="c" x1="0.518" y1="-0.407" x2="0.353" y2="1.223" xlink:href="#b"/><linearGradient id="d" x1="-0.462" y1="-1.03" x2="0.591" y2="-0.306" xlink:href="#b"/><linearGradient id="e" x1="-0.151" y1="-0.116" x2="0.585" y2="-0.571" xlink:href="#b"/><linearGradient id="f" x1="0.61" y1="2.287" x2="0.415" y2="1.017" xlink:href="#b"/><linearGradient id="g" x1="1.34" y1="1.58" x2="-0.083" y2="0.368" xlink:href="#b"/></defs><g transform="translate(-1054.378 -690.849)"><g transform="translate(1054.378 679.348)"><path class="a" d="M23.214,12.49l5.72,11.59,12.79,1.859a1.775,1.775,0,0,1,.983,3.027l-9.255,9.021,2.185,12.739A1.774,1.774,0,0,1,33.063,52.6l-11.44-6.014L10.183,52.6a1.774,1.774,0,0,1-2.575-1.871L9.793,37.987.538,28.965a1.775,1.775,0,0,1,.983-3.027l12.79-1.859,5.72-11.59A1.774,1.774,0,0,1,23.214,12.49Z" transform="translate(0)"/><path class="b" d="M263.312,24.08l-5.72-11.59A1.754,1.754,0,0,0,256,11.5V33.444Z" transform="translate(-234.378 0)"/><path class="c" d="M267.83,207.836l9.255-9.022a1.752,1.752,0,0,0,.456-1.795L256,203.293Z" transform="translate(-234.377 -169.85)"/><path class="d" d="M269.314,290.3,256,271.289v13.138l11.44,6.014A1.754,1.754,0,0,0,269.314,290.3Z" transform="translate(-234.377 -237.845)"/><path class="e" d="M103.8,271.289l-11.83,4.543-2.185,12.739a1.753,1.753,0,0,0,.7,1.731Z" transform="translate(-82.176 -237.845)"/><path class="f" d="M.968,163.52l21.541,6.273L15.2,160.429l-12.79,1.859a1.754,1.754,0,0,0-1.44,1.232Z" transform="translate(-0.886 -136.349)"/><path class="g" d="M9.8,207.837.543,198.816a1.752,1.752,0,0,1-.456-1.795l21.541,6.273Z" transform="translate(-0.005 -169.85)"/></g><g transform="translate(1109.378 679.348)"><path class="a" d="M23.214,12.49l5.72,11.59,12.79,1.859a1.775,1.775,0,0,1,.983,3.027l-9.255,9.021,2.185,12.739A1.774,1.774,0,0,1,33.063,52.6l-11.44-6.014L10.183,52.6a1.774,1.774,0,0,1-2.575-1.871L9.793,37.987.538,28.965a1.775,1.775,0,0,1,.983-3.027l12.79-1.859,5.72-11.59A1.774,1.774,0,0,1,23.214,12.49Z" transform="translate(0)"/><path class="b" d="M263.312,24.08l-5.72-11.59A1.754,1.754,0,0,0,256,11.5V33.444Z" transform="translate(-234.378 0)"/><path class="c" d="M267.83,207.836l9.255-9.022a1.752,1.752,0,0,0,.456-1.795L256,203.293Z" transform="translate(-234.377 -169.85)"/><path class="d" d="M269.314,290.3,256,271.289v13.138l11.44,6.014A1.754,1.754,0,0,0,269.314,290.3Z" transform="translate(-234.377 -237.845)"/><path class="e" d="M103.8,271.289l-11.83,4.543-2.185,12.739a1.753,1.753,0,0,0,.7,1.731Z" transform="translate(-82.176 -237.845)"/><path class="f" d="M.968,163.52l21.541,6.273L15.2,160.429l-12.79,1.859a1.754,1.754,0,0,0-1.44,1.232Z" transform="translate(-0.886 -136.349)"/><path class="g" d="M9.8,207.837.543,198.816a1.752,1.752,0,0,1-.456-1.795l21.541,6.273Z" transform="translate(-0.005 -169.85)"/></g><g transform="translate(1164.378 679.348)"><path class="a" d="M23.214,12.49l5.72,11.59,12.79,1.859a1.775,1.775,0,0,1,.983,3.027l-9.255,9.021,2.185,12.739A1.774,1.774,0,0,1,33.063,52.6l-11.44-6.014L10.183,52.6a1.774,1.774,0,0,1-2.575-1.871L9.793,37.987.538,28.965a1.775,1.775,0,0,1,.983-3.027l12.79-1.859,5.72-11.59A1.774,1.774,0,0,1,23.214,12.49Z" transform="translate(0)"/><path class="b" d="M263.312,24.08l-5.72-11.59A1.754,1.754,0,0,0,256,11.5V33.444Z" transform="translate(-234.378 0)"/><path class="c" d="M267.83,207.836l9.255-9.022a1.752,1.752,0,0,0,.456-1.795L256,203.293Z" transform="translate(-234.377 -169.85)"/><path class="d" d="M269.314,290.3,256,271.289v13.138l11.44,6.014A1.754,1.754,0,0,0,269.314,290.3Z" transform="translate(-234.377 -237.845)"/><path class="e" d="M103.8,271.289l-11.83,4.543-2.185,12.739a1.753,1.753,0,0,0,.7,1.731Z" transform="translate(-82.176 -237.845)"/><path class="f" d="M.968,163.52l21.541,6.273L15.2,160.429l-12.79,1.859a1.754,1.754,0,0,0-1.44,1.232Z" transform="translate(-0.886 -136.349)"/><path class="g" d="M9.8,207.837.543,198.816a1.752,1.752,0,0,1-.456-1.795l21.541,6.273Z" transform="translate(-0.005 -169.85)"/></g><g transform="translate(1219.378 679.348)"><path class="a" d="M23.214,12.49l5.72,11.59,12.79,1.859a1.775,1.775,0,0,1,.983,3.027l-9.255,9.021,2.185,12.739A1.774,1.774,0,0,1,33.063,52.6l-11.44-6.014L10.183,52.6a1.774,1.774,0,0,1-2.575-1.871L9.793,37.987.538,28.965a1.775,1.775,0,0,1,.983-3.027l12.79-1.859,5.72-11.59A1.774,1.774,0,0,1,23.214,12.49Z" transform="translate(0)"/><path class="b" d="M263.312,24.08l-5.72-11.59A1.754,1.754,0,0,0,256,11.5V33.444Z" transform="translate(-234.378 0)"/><path class="c" d="M267.83,207.836l9.255-9.022a1.752,1.752,0,0,0,.456-1.795L256,203.293Z" transform="translate(-234.377 -169.85)"/><path class="d" d="M269.314,290.3,256,271.289v13.138l11.44,6.014A1.754,1.754,0,0,0,269.314,290.3Z" transform="translate(-234.377 -237.845)"/><path class="e" d="M103.8,271.289l-11.83,4.543-2.185,12.739a1.753,1.753,0,0,0,.7,1.731Z" transform="translate(-82.176 -237.845)"/><path class="f" d="M.968,163.52l21.541,6.273L15.2,160.429l-12.79,1.859a1.754,1.754,0,0,0-1.44,1.232Z" transform="translate(-0.886 -136.349)"/><path class="g" d="M9.8,207.837.543,198.816a1.752,1.752,0,0,1-.456-1.795l21.541,6.273Z" transform="translate(-0.005 -169.85)"/></g><g transform="translate(1274.378 679.348)"><path class="a" d="M23.214,12.49l5.72,11.59,12.79,1.859a1.775,1.775,0,0,1,.983,3.027l-9.255,9.021,2.185,12.739A1.774,1.774,0,0,1,33.063,52.6l-11.44-6.014L10.183,52.6a1.774,1.774,0,0,1-2.575-1.871L9.793,37.987.538,28.965a1.775,1.775,0,0,1,.983-3.027l12.79-1.859,5.72-11.59A1.774,1.774,0,0,1,23.214,12.49Z" transform="translate(0)"/><path class="b" d="M263.312,24.08l-5.72-11.59A1.754,1.754,0,0,0,256,11.5V33.444Z" transform="translate(-234.378 0)"/><path class="c" d="M267.83,207.836l9.255-9.022a1.752,1.752,0,0,0,.456-1.795L256,203.293Z" transform="translate(-234.377 -169.85)"/><path class="d" d="M269.314,290.3,256,271.289v13.138l11.44,6.014A1.754,1.754,0,0,0,269.314,290.3Z" transform="translate(-234.377 -237.845)"/><path class="e" d="M103.8,271.289l-11.83,4.543-2.185,12.739a1.753,1.753,0,0,0,.7,1.731Z" transform="translate(-82.176 -237.845)"/><path class="f" d="M.968,163.52l21.541,6.273L15.2,160.429l-12.79,1.859a1.754,1.754,0,0,0-1.44,1.232Z" transform="translate(-0.886 -136.349)"/><path class="g" d="M9.8,207.837.543,198.816a1.752,1.752,0,0,1-.456-1.795l21.541,6.273Z" transform="translate(-0.005 -169.85)"/></g></g></svg>